<svg width="76" height="72" viewBox="0 0 76 72" fill="none" xmlns="http://www.w3.org/2000/svg">
<path d="M3.17156 11.7466C3.89544 11.0922 4.89544 10.6875 6 10.6875H70C71.1044 10.6875 72.1044 11.0922 72.8284 11.7466M3.17156 11.7466C2.44772 12.401 2 13.305 2 14.3036V57.6964C2 59.6936 3.79088 61.3125 6 61.3125H70C72.2092 61.3125 74 59.6936 74 57.6964V14.3036C74 13.305 73.5524 12.401 72.8284 11.7466M3.17156 11.7466L32.3432 38.1179C35.4672 40.9424 40.5328 40.9424 43.6568 38.1179L72.8284 11.7466" stroke="#1E1E1E" stroke-width="3.5" stroke-linecap="round" stroke-linejoin="round"/>
<path d="M3.17156 11.7466C3.89544 11.0922 4.89544 10.6875 6 10.6875H70C71.1044 10.6875 72.1044 11.0922 72.8284 11.7466M3.17156 11.7466C2.44772 12.401 2 13.305 2 14.3036V57.6964C2 59.6936 3.79088 61.3125 6 61.3125H70C72.2092 61.3125 74 59.6936 74 57.6964V14.3036C74 13.305 73.5524 12.401 72.8284 11.7466M3.17156 11.7466L32.3432 38.1179C35.4672 40.9424 40.5328 40.9424 43.6568 38.1179L72.8284 11.7466" stroke="black" stroke-opacity="0.2" stroke-width="3.5" stroke-linecap="round" stroke-linejoin="round"/>
<path d="M3.17156 11.7466C3.89544 11.0922 4.89544 10.6875 6 10.6875H70C71.1044 10.6875 72.1044 11.0922 72.8284 11.7466M3.17156 11.7466C2.44772 12.401 2 13.305 2 14.3036V57.6964C2 59.6936 3.79088 61.3125 6 61.3125H70C72.2092 61.3125 74 59.6936 74 57.6964V14.3036C74 13.305 73.5524 12.401 72.8284 11.7466M3.17156 11.7466L32.3432 38.1179C35.4672 40.9424 40.5328 40.9424 43.6568 38.1179L72.8284 11.7466" stroke="black" stroke-opacity="0.2" stroke-width="3.5" stroke-linecap="round" stroke-linejoin="round"/>
<path d="M3.17156 11.7466C3.89544 11.0922 4.89544 10.6875 6 10.6875H70C71.1044 10.6875 72.1044 11.0922 72.8284 11.7466M3.17156 11.7466C2.44772 12.401 2 13.305 2 14.3036V57.6964C2 59.6936 3.79088 61.3125 6 61.3125H70C72.2092 61.3125 74 59.6936 74 57.6964V14.3036C74 13.305 73.5524 12.401 72.8284 11.7466M3.17156 11.7466L32.3432 38.1179C35.4672 40.9424 40.5328 40.9424 43.6568 38.1179L72.8284 11.7466" stroke="black" stroke-opacity="0.2" stroke-width="3.5" stroke-linecap="round" stroke-linejoin="round"/>
<path d="M3.17156 11.7466C3.89544 11.0922 4.89544 10.6875 6 10.6875H70C71.1044 10.6875 72.1044 11.0922 72.8284 11.7466M3.17156 11.7466C2.44772 12.401 2 13.305 2 14.3036V57.6964C2 59.6936 3.79088 61.3125 6 61.3125H70C72.2092 61.3125 74 59.6936 74 57.6964V14.3036C74 13.305 73.5524 12.401 72.8284 11.7466M3.17156 11.7466L32.3432 38.1179C35.4672 40.9424 40.5328 40.9424 43.6568 38.1179L72.8284 11.7466" stroke="black" stroke-opacity="0.2" stroke-width="3.5" stroke-linecap="round" stroke-linejoin="round"/>
</svg>
