<svg width="72" height="72" viewBox="0 0 72 72" fill="none" xmlns="http://www.w3.org/2000/svg">
<path d="M65.2881 9.5625H6.71186C3.00692 9.5674 0.00488136 12.5814 0 16.301V55.5069C0.00488136 59.2266 3.00692 62.2405 6.71186 62.2454H65.2881C68.9931 62.2405 71.9951 59.2266 72 55.5069V16.301C71.9951 12.5814 68.9931 9.5674 65.2881 9.5625ZM68.339 55.5069C68.3365 57.1977 66.9722 58.5674 65.2881 58.5699H6.71186C5.0278 58.5674 3.66346 57.1977 3.66102 55.5069V16.301C3.66346 14.6103 5.0278 13.2405 6.71186 13.2381H65.2881C66.9722 13.2405 68.3365 14.6103 68.339 16.301V55.5069ZM21.3559 48.7684H11.5932C10.5828 48.7684 9.76271 49.5917 9.76271 50.6062C9.76271 51.6206 10.5828 52.444 11.5932 52.444H21.3559C22.3664 52.444 23.1864 51.6206 23.1864 50.6062C23.1864 49.5917 22.3664 48.7684 21.3559 48.7684ZM45.7627 48.7684H31.1186C30.1082 48.7684 29.2881 49.5917 29.2881 50.6062C29.2881 51.6206 30.1082 52.444 31.1186 52.444H45.7627C46.7732 52.444 47.5932 51.6206 47.5932 50.6062C47.5932 49.5917 46.7732 48.7684 45.7627 48.7684ZM55.5254 38.9669H11.5932C10.5828 38.9669 9.76271 39.7903 9.76271 40.8047C9.76271 41.8192 10.5828 42.6425 11.5932 42.6425H55.5254C56.5359 42.6425 57.3559 41.8192 57.3559 40.8047C57.3559 39.7903 56.5359 38.9669 55.5254 38.9669ZM60.4068 19.364H45.7627C44.7523 19.364 43.9322 20.1873 43.9322 21.2018V31.0032C43.9322 32.0177 44.7523 32.841 45.7627 32.841H60.4068C61.4172 32.841 62.2373 32.0177 62.2373 31.0032V21.2018C62.2373 20.1873 61.4172 19.364 60.4068 19.364ZM58.5763 29.1655H47.5932V23.0395H58.5763V29.1655Z" fill="#1E1E1E"/>
<path d="M65.2881 9.5625H6.71186C3.00692 9.5674 0.00488136 12.5814 0 16.301V55.5069C0.00488136 59.2266 3.00692 62.2405 6.71186 62.2454H65.2881C68.9931 62.2405 71.9951 59.2266 72 55.5069V16.301C71.9951 12.5814 68.9931 9.5674 65.2881 9.5625ZM68.339 55.5069C68.3365 57.1977 66.9722 58.5674 65.2881 58.5699H6.71186C5.0278 58.5674 3.66346 57.1977 3.66102 55.5069V16.301C3.66346 14.6103 5.0278 13.2405 6.71186 13.2381H65.2881C66.9722 13.2405 68.3365 14.6103 68.339 16.301V55.5069ZM21.3559 48.7684H11.5932C10.5828 48.7684 9.76271 49.5917 9.76271 50.6062C9.76271 51.6206 10.5828 52.444 11.5932 52.444H21.3559C22.3664 52.444 23.1864 51.6206 23.1864 50.6062C23.1864 49.5917 22.3664 48.7684 21.3559 48.7684ZM45.7627 48.7684H31.1186C30.1082 48.7684 29.2881 49.5917 29.2881 50.6062C29.2881 51.6206 30.1082 52.444 31.1186 52.444H45.7627C46.7732 52.444 47.5932 51.6206 47.5932 50.6062C47.5932 49.5917 46.7732 48.7684 45.7627 48.7684ZM55.5254 38.9669H11.5932C10.5828 38.9669 9.76271 39.7903 9.76271 40.8047C9.76271 41.8192 10.5828 42.6425 11.5932 42.6425H55.5254C56.5359 42.6425 57.3559 41.8192 57.3559 40.8047C57.3559 39.7903 56.5359 38.9669 55.5254 38.9669ZM60.4068 19.364H45.7627C44.7523 19.364 43.9322 20.1873 43.9322 21.2018V31.0032C43.9322 32.0177 44.7523 32.841 45.7627 32.841H60.4068C61.4172 32.841 62.2373 32.0177 62.2373 31.0032V21.2018C62.2373 20.1873 61.4172 19.364 60.4068 19.364ZM58.5763 29.1655H47.5932V23.0395H58.5763V29.1655Z" fill="black" fill-opacity="0.2"/>
<path d="M65.2881 9.5625H6.71186C3.00692 9.5674 0.00488136 12.5814 0 16.301V55.5069C0.00488136 59.2266 3.00692 62.2405 6.71186 62.2454H65.2881C68.9931 62.2405 71.9951 59.2266 72 55.5069V16.301C71.9951 12.5814 68.9931 9.5674 65.2881 9.5625ZM68.339 55.5069C68.3365 57.1977 66.9722 58.5674 65.2881 58.5699H6.71186C5.0278 58.5674 3.66346 57.1977 3.66102 55.5069V16.301C3.66346 14.6103 5.0278 13.2405 6.71186 13.2381H65.2881C66.9722 13.2405 68.3365 14.6103 68.339 16.301V55.5069ZM21.3559 48.7684H11.5932C10.5828 48.7684 9.76271 49.5917 9.76271 50.6062C9.76271 51.6206 10.5828 52.444 11.5932 52.444H21.3559C22.3664 52.444 23.1864 51.6206 23.1864 50.6062C23.1864 49.5917 22.3664 48.7684 21.3559 48.7684ZM45.7627 48.7684H31.1186C30.1082 48.7684 29.2881 49.5917 29.2881 50.6062C29.2881 51.6206 30.1082 52.444 31.1186 52.444H45.7627C46.7732 52.444 47.5932 51.6206 47.5932 50.6062C47.5932 49.5917 46.7732 48.7684 45.7627 48.7684ZM55.5254 38.9669H11.5932C10.5828 38.9669 9.76271 39.7903 9.76271 40.8047C9.76271 41.8192 10.5828 42.6425 11.5932 42.6425H55.5254C56.5359 42.6425 57.3559 41.8192 57.3559 40.8047C57.3559 39.7903 56.5359 38.9669 55.5254 38.9669ZM60.4068 19.364H45.7627C44.7523 19.364 43.9322 20.1873 43.9322 21.2018V31.0032C43.9322 32.0177 44.7523 32.841 45.7627 32.841H60.4068C61.4172 32.841 62.2373 32.0177 62.2373 31.0032V21.2018C62.2373 20.1873 61.4172 19.364 60.4068 19.364ZM58.5763 29.1655H47.5932V23.0395H58.5763V29.1655Z" fill="black" fill-opacity="0.2"/>
<path d="M65.2881 9.5625H6.71186C3.00692 9.5674 0.00488136 12.5814 0 16.301V55.5069C0.00488136 59.2266 3.00692 62.2405 6.71186 62.2454H65.2881C68.9931 62.2405 71.9951 59.2266 72 55.5069V16.301C71.9951 12.5814 68.9931 9.5674 65.2881 9.5625ZM68.339 55.5069C68.3365 57.1977 66.9722 58.5674 65.2881 58.5699H6.71186C5.0278 58.5674 3.66346 57.1977 3.66102 55.5069V16.301C3.66346 14.6103 5.0278 13.2405 6.71186 13.2381H65.2881C66.9722 13.2405 68.3365 14.6103 68.339 16.301V55.5069ZM21.3559 48.7684H11.5932C10.5828 48.7684 9.76271 49.5917 9.76271 50.6062C9.76271 51.6206 10.5828 52.444 11.5932 52.444H21.3559C22.3664 52.444 23.1864 51.6206 23.1864 50.6062C23.1864 49.5917 22.3664 48.7684 21.3559 48.7684ZM45.7627 48.7684H31.1186C30.1082 48.7684 29.2881 49.5917 29.2881 50.6062C29.2881 51.6206 30.1082 52.444 31.1186 52.444H45.7627C46.7732 52.444 47.5932 51.6206 47.5932 50.6062C47.5932 49.5917 46.7732 48.7684 45.7627 48.7684ZM55.5254 38.9669H11.5932C10.5828 38.9669 9.76271 39.7903 9.76271 40.8047C9.76271 41.8192 10.5828 42.6425 11.5932 42.6425H55.5254C56.5359 42.6425 57.3559 41.8192 57.3559 40.8047C57.3559 39.7903 56.5359 38.9669 55.5254 38.9669ZM60.4068 19.364H45.7627C44.7523 19.364 43.9322 20.1873 43.9322 21.2018V31.0032C43.9322 32.0177 44.7523 32.841 45.7627 32.841H60.4068C61.4172 32.841 62.2373 32.0177 62.2373 31.0032V21.2018C62.2373 20.1873 61.4172 19.364 60.4068 19.364ZM58.5763 29.1655H47.5932V23.0395H58.5763V29.1655Z" fill="black" fill-opacity="0.2"/>
<path d="M65.2881 9.5625H6.71186C3.00692 9.5674 0.00488136 12.5814 0 16.301V55.5069C0.00488136 59.2266 3.00692 62.2405 6.71186 62.2454H65.2881C68.9931 62.2405 71.9951 59.2266 72 55.5069V16.301C71.9951 12.5814 68.9931 9.5674 65.2881 9.5625ZM68.339 55.5069C68.3365 57.1977 66.9722 58.5674 65.2881 58.5699H6.71186C5.0278 58.5674 3.66346 57.1977 3.66102 55.5069V16.301C3.66346 14.6103 5.0278 13.2405 6.71186 13.2381H65.2881C66.9722 13.2405 68.3365 14.6103 68.339 16.301V55.5069ZM21.3559 48.7684H11.5932C10.5828 48.7684 9.76271 49.5917 9.76271 50.6062C9.76271 51.6206 10.5828 52.444 11.5932 52.444H21.3559C22.3664 52.444 23.1864 51.6206 23.1864 50.6062C23.1864 49.5917 22.3664 48.7684 21.3559 48.7684ZM45.7627 48.7684H31.1186C30.1082 48.7684 29.2881 49.5917 29.2881 50.6062C29.2881 51.6206 30.1082 52.444 31.1186 52.444H45.7627C46.7732 52.444 47.5932 51.6206 47.5932 50.6062C47.5932 49.5917 46.7732 48.7684 45.7627 48.7684ZM55.5254 38.9669H11.5932C10.5828 38.9669 9.76271 39.7903 9.76271 40.8047C9.76271 41.8192 10.5828 42.6425 11.5932 42.6425H55.5254C56.5359 42.6425 57.3559 41.8192 57.3559 40.8047C57.3559 39.7903 56.5359 38.9669 55.5254 38.9669ZM60.4068 19.364H45.7627C44.7523 19.364 43.9322 20.1873 43.9322 21.2018V31.0032C43.9322 32.0177 44.7523 32.841 45.7627 32.841H60.4068C61.4172 32.841 62.2373 32.0177 62.2373 31.0032V21.2018C62.2373 20.1873 61.4172 19.364 60.4068 19.364ZM58.5763 29.1655H47.5932V23.0395H58.5763V29.1655Z" fill="black" fill-opacity="0.2"/>
</svg>
