<svg width="72" height="72" viewBox="0 0 72 72" fill="none" xmlns="http://www.w3.org/2000/svg">
<path d="M7.82609 3.375C3.52786 3.375 0 6.9068 0 11.2098V48.817C0 53.12 3.52786 56.6518 7.82609 56.6518H14.2337C14.4477 58.537 14.4232 60.2815 13.9402 61.7444C13.3471 63.544 12.2405 65.0559 10.1739 66.2984C9.59308 66.6657 9.32405 67.3696 9.50135 68.0306C9.67866 68.6917 10.2717 69.163 10.9565 69.1875C17.5965 69.1875 25.2086 65.7169 29.0543 56.6518H64.1739C68.4721 56.6518 72 53.12 72 48.817V11.2098C72 6.9068 68.4721 3.375 64.1739 3.375H7.82609ZM7.82609 6.50893H64.1739C66.7663 6.50893 68.8696 8.61454 68.8696 11.2098V48.817C68.8696 51.4122 66.7663 53.5179 64.1739 53.5179H28.1739C27.5197 53.5179 26.9327 53.928 26.7065 54.5462C24.2731 61.1935 19.926 64.3581 15.4076 65.5149C16.019 64.6396 16.5999 63.7154 16.9239 62.7238C17.7371 60.2509 17.6698 57.5454 17.1685 54.791C17.0279 54.0626 16.3981 53.5301 15.6522 53.5179H7.82609C5.2337 53.5179 3.13043 51.4122 3.13043 48.817V11.2098C3.13043 8.61454 5.2337 6.50893 7.82609 6.50893ZM20.3478 25.3125C17.7738 25.3125 15.6522 27.4365 15.6522 30.0134C15.6522 32.5903 17.7738 34.7143 20.3478 34.7143C22.9219 34.7143 25.0435 32.5903 25.0435 30.0134C25.0435 27.4365 22.9219 25.3125 20.3478 25.3125ZM36 25.3125C33.426 25.3125 31.3043 27.4365 31.3043 30.0134C31.3043 32.5903 33.426 34.7143 36 34.7143C38.574 34.7143 40.6957 32.5903 40.6957 30.0134C40.6957 27.4365 38.574 25.3125 36 25.3125ZM51.6522 25.3125C49.0781 25.3125 46.9565 27.4365 46.9565 30.0134C46.9565 32.5903 49.0781 34.7143 51.6522 34.7143C54.2262 34.7143 56.3478 32.5903 56.3478 30.0134C56.3478 27.4365 54.2262 25.3125 51.6522 25.3125ZM20.3478 28.4464C21.2283 28.4464 21.913 29.132 21.913 30.0134C21.913 30.8948 21.2283 31.5804 20.3478 31.5804C19.4674 31.5804 18.7826 30.8948 18.7826 30.0134C18.7826 29.132 19.4674 28.4464 20.3478 28.4464ZM36 28.4464C36.8804 28.4464 37.5652 29.132 37.5652 30.0134C37.5652 30.8948 36.8804 31.5804 36 31.5804C35.1196 31.5804 34.4348 30.8948 34.4348 30.0134C34.4348 29.132 35.1196 28.4464 36 28.4464ZM51.6522 28.4464C52.5326 28.4464 53.2174 29.132 53.2174 30.0134C53.2174 30.8948 52.5326 31.5804 51.6522 31.5804C50.7717 31.5804 50.087 30.8948 50.087 30.0134C50.087 29.132 50.7717 28.4464 51.6522 28.4464Z" fill="#1E1E1E"/>
<path d="M7.82609 3.375C3.52786 3.375 0 6.9068 0 11.2098V48.817C0 53.12 3.52786 56.6518 7.82609 56.6518H14.2337C14.4477 58.537 14.4232 60.2815 13.9402 61.7444C13.3471 63.544 12.2405 65.0559 10.1739 66.2984C9.59308 66.6657 9.32405 67.3696 9.50135 68.0306C9.67866 68.6917 10.2717 69.163 10.9565 69.1875C17.5965 69.1875 25.2086 65.7169 29.0543 56.6518H64.1739C68.4721 56.6518 72 53.12 72 48.817V11.2098C72 6.9068 68.4721 3.375 64.1739 3.375H7.82609ZM7.82609 6.50893H64.1739C66.7663 6.50893 68.8696 8.61454 68.8696 11.2098V48.817C68.8696 51.4122 66.7663 53.5179 64.1739 53.5179H28.1739C27.5197 53.5179 26.9327 53.928 26.7065 54.5462C24.2731 61.1935 19.926 64.3581 15.4076 65.5149C16.019 64.6396 16.5999 63.7154 16.9239 62.7238C17.7371 60.2509 17.6698 57.5454 17.1685 54.791C17.0279 54.0626 16.3981 53.5301 15.6522 53.5179H7.82609C5.2337 53.5179 3.13043 51.4122 3.13043 48.817V11.2098C3.13043 8.61454 5.2337 6.50893 7.82609 6.50893ZM20.3478 25.3125C17.7738 25.3125 15.6522 27.4365 15.6522 30.0134C15.6522 32.5903 17.7738 34.7143 20.3478 34.7143C22.9219 34.7143 25.0435 32.5903 25.0435 30.0134C25.0435 27.4365 22.9219 25.3125 20.3478 25.3125ZM36 25.3125C33.426 25.3125 31.3043 27.4365 31.3043 30.0134C31.3043 32.5903 33.426 34.7143 36 34.7143C38.574 34.7143 40.6957 32.5903 40.6957 30.0134C40.6957 27.4365 38.574 25.3125 36 25.3125ZM51.6522 25.3125C49.0781 25.3125 46.9565 27.4365 46.9565 30.0134C46.9565 32.5903 49.0781 34.7143 51.6522 34.7143C54.2262 34.7143 56.3478 32.5903 56.3478 30.0134C56.3478 27.4365 54.2262 25.3125 51.6522 25.3125ZM20.3478 28.4464C21.2283 28.4464 21.913 29.132 21.913 30.0134C21.913 30.8948 21.2283 31.5804 20.3478 31.5804C19.4674 31.5804 18.7826 30.8948 18.7826 30.0134C18.7826 29.132 19.4674 28.4464 20.3478 28.4464ZM36 28.4464C36.8804 28.4464 37.5652 29.132 37.5652 30.0134C37.5652 30.8948 36.8804 31.5804 36 31.5804C35.1196 31.5804 34.4348 30.8948 34.4348 30.0134C34.4348 29.132 35.1196 28.4464 36 28.4464ZM51.6522 28.4464C52.5326 28.4464 53.2174 29.132 53.2174 30.0134C53.2174 30.8948 52.5326 31.5804 51.6522 31.5804C50.7717 31.5804 50.087 30.8948 50.087 30.0134C50.087 29.132 50.7717 28.4464 51.6522 28.4464Z" fill="black" fill-opacity="0.2"/>
<path d="M7.82609 3.375C3.52786 3.375 0 6.9068 0 11.2098V48.817C0 53.12 3.52786 56.6518 7.82609 56.6518H14.2337C14.4477 58.537 14.4232 60.2815 13.9402 61.7444C13.3471 63.544 12.2405 65.0559 10.1739 66.2984C9.59308 66.6657 9.32405 67.3696 9.50135 68.0306C9.67866 68.6917 10.2717 69.163 10.9565 69.1875C17.5965 69.1875 25.2086 65.7169 29.0543 56.6518H64.1739C68.4721 56.6518 72 53.12 72 48.817V11.2098C72 6.9068 68.4721 3.375 64.1739 3.375H7.82609ZM7.82609 6.50893H64.1739C66.7663 6.50893 68.8696 8.61454 68.8696 11.2098V48.817C68.8696 51.4122 66.7663 53.5179 64.1739 53.5179H28.1739C27.5197 53.5179 26.9327 53.928 26.7065 54.5462C24.2731 61.1935 19.926 64.3581 15.4076 65.5149C16.019 64.6396 16.5999 63.7154 16.9239 62.7238C17.7371 60.2509 17.6698 57.5454 17.1685 54.791C17.0279 54.0626 16.3981 53.5301 15.6522 53.5179H7.82609C5.2337 53.5179 3.13043 51.4122 3.13043 48.817V11.2098C3.13043 8.61454 5.2337 6.50893 7.82609 6.50893ZM20.3478 25.3125C17.7738 25.3125 15.6522 27.4365 15.6522 30.0134C15.6522 32.5903 17.7738 34.7143 20.3478 34.7143C22.9219 34.7143 25.0435 32.5903 25.0435 30.0134C25.0435 27.4365 22.9219 25.3125 20.3478 25.3125ZM36 25.3125C33.426 25.3125 31.3043 27.4365 31.3043 30.0134C31.3043 32.5903 33.426 34.7143 36 34.7143C38.574 34.7143 40.6957 32.5903 40.6957 30.0134C40.6957 27.4365 38.574 25.3125 36 25.3125ZM51.6522 25.3125C49.0781 25.3125 46.9565 27.4365 46.9565 30.0134C46.9565 32.5903 49.0781 34.7143 51.6522 34.7143C54.2262 34.7143 56.3478 32.5903 56.3478 30.0134C56.3478 27.4365 54.2262 25.3125 51.6522 25.3125ZM20.3478 28.4464C21.2283 28.4464 21.913 29.132 21.913 30.0134C21.913 30.8948 21.2283 31.5804 20.3478 31.5804C19.4674 31.5804 18.7826 30.8948 18.7826 30.0134C18.7826 29.132 19.4674 28.4464 20.3478 28.4464ZM36 28.4464C36.8804 28.4464 37.5652 29.132 37.5652 30.0134C37.5652 30.8948 36.8804 31.5804 36 31.5804C35.1196 31.5804 34.4348 30.8948 34.4348 30.0134C34.4348 29.132 35.1196 28.4464 36 28.4464ZM51.6522 28.4464C52.5326 28.4464 53.2174 29.132 53.2174 30.0134C53.2174 30.8948 52.5326 31.5804 51.6522 31.5804C50.7717 31.5804 50.087 30.8948 50.087 30.0134C50.087 29.132 50.7717 28.4464 51.6522 28.4464Z" fill="black" fill-opacity="0.2"/>
<path d="M7.82609 3.375C3.52786 3.375 0 6.9068 0 11.2098V48.817C0 53.12 3.52786 56.6518 7.82609 56.6518H14.2337C14.4477 58.537 14.4232 60.2815 13.9402 61.7444C13.3471 63.544 12.2405 65.0559 10.1739 66.2984C9.59308 66.6657 9.32405 67.3696 9.50135 68.0306C9.67866 68.6917 10.2717 69.163 10.9565 69.1875C17.5965 69.1875 25.2086 65.7169 29.0543 56.6518H64.1739C68.4721 56.6518 72 53.12 72 48.817V11.2098C72 6.9068 68.4721 3.375 64.1739 3.375H7.82609ZM7.82609 6.50893H64.1739C66.7663 6.50893 68.8696 8.61454 68.8696 11.2098V48.817C68.8696 51.4122 66.7663 53.5179 64.1739 53.5179H28.1739C27.5197 53.5179 26.9327 53.928 26.7065 54.5462C24.2731 61.1935 19.926 64.3581 15.4076 65.5149C16.019 64.6396 16.5999 63.7154 16.9239 62.7238C17.7371 60.2509 17.6698 57.5454 17.1685 54.791C17.0279 54.0626 16.3981 53.5301 15.6522 53.5179H7.82609C5.2337 53.5179 3.13043 51.4122 3.13043 48.817V11.2098C3.13043 8.61454 5.2337 6.50893 7.82609 6.50893ZM20.3478 25.3125C17.7738 25.3125 15.6522 27.4365 15.6522 30.0134C15.6522 32.5903 17.7738 34.7143 20.3478 34.7143C22.9219 34.7143 25.0435 32.5903 25.0435 30.0134C25.0435 27.4365 22.9219 25.3125 20.3478 25.3125ZM36 25.3125C33.426 25.3125 31.3043 27.4365 31.3043 30.0134C31.3043 32.5903 33.426 34.7143 36 34.7143C38.574 34.7143 40.6957 32.5903 40.6957 30.0134C40.6957 27.4365 38.574 25.3125 36 25.3125ZM51.6522 25.3125C49.0781 25.3125 46.9565 27.4365 46.9565 30.0134C46.9565 32.5903 49.0781 34.7143 51.6522 34.7143C54.2262 34.7143 56.3478 32.5903 56.3478 30.0134C56.3478 27.4365 54.2262 25.3125 51.6522 25.3125ZM20.3478 28.4464C21.2283 28.4464 21.913 29.132 21.913 30.0134C21.913 30.8948 21.2283 31.5804 20.3478 31.5804C19.4674 31.5804 18.7826 30.8948 18.7826 30.0134C18.7826 29.132 19.4674 28.4464 20.3478 28.4464ZM36 28.4464C36.8804 28.4464 37.5652 29.132 37.5652 30.0134C37.5652 30.8948 36.8804 31.5804 36 31.5804C35.1196 31.5804 34.4348 30.8948 34.4348 30.0134C34.4348 29.132 35.1196 28.4464 36 28.4464ZM51.6522 28.4464C52.5326 28.4464 53.2174 29.132 53.2174 30.0134C53.2174 30.8948 52.5326 31.5804 51.6522 31.5804C50.7717 31.5804 50.087 30.8948 50.087 30.0134C50.087 29.132 50.7717 28.4464 51.6522 28.4464Z" fill="black" fill-opacity="0.2"/>
<path d="M7.82609 3.375C3.52786 3.375 0 6.9068 0 11.2098V48.817C0 53.12 3.52786 56.6518 7.82609 56.6518H14.2337C14.4477 58.537 14.4232 60.2815 13.9402 61.7444C13.3471 63.544 12.2405 65.0559 10.1739 66.2984C9.59308 66.6657 9.32405 67.3696 9.50135 68.0306C9.67866 68.6917 10.2717 69.163 10.9565 69.1875C17.5965 69.1875 25.2086 65.7169 29.0543 56.6518H64.1739C68.4721 56.6518 72 53.12 72 48.817V11.2098C72 6.9068 68.4721 3.375 64.1739 3.375H7.82609ZM7.82609 6.50893H64.1739C66.7663 6.50893 68.8696 8.61454 68.8696 11.2098V48.817C68.8696 51.4122 66.7663 53.5179 64.1739 53.5179H28.1739C27.5197 53.5179 26.9327 53.928 26.7065 54.5462C24.2731 61.1935 19.926 64.3581 15.4076 65.5149C16.019 64.6396 16.5999 63.7154 16.9239 62.7238C17.7371 60.2509 17.6698 57.5454 17.1685 54.791C17.0279 54.0626 16.3981 53.5301 15.6522 53.5179H7.82609C5.2337 53.5179 3.13043 51.4122 3.13043 48.817V11.2098C3.13043 8.61454 5.2337 6.50893 7.82609 6.50893ZM20.3478 25.3125C17.7738 25.3125 15.6522 27.4365 15.6522 30.0134C15.6522 32.5903 17.7738 34.7143 20.3478 34.7143C22.9219 34.7143 25.0435 32.5903 25.0435 30.0134C25.0435 27.4365 22.9219 25.3125 20.3478 25.3125ZM36 25.3125C33.426 25.3125 31.3043 27.4365 31.3043 30.0134C31.3043 32.5903 33.426 34.7143 36 34.7143C38.574 34.7143 40.6957 32.5903 40.6957 30.0134C40.6957 27.4365 38.574 25.3125 36 25.3125ZM51.6522 25.3125C49.0781 25.3125 46.9565 27.4365 46.9565 30.0134C46.9565 32.5903 49.0781 34.7143 51.6522 34.7143C54.2262 34.7143 56.3478 32.5903 56.3478 30.0134C56.3478 27.4365 54.2262 25.3125 51.6522 25.3125ZM20.3478 28.4464C21.2283 28.4464 21.913 29.132 21.913 30.0134C21.913 30.8948 21.2283 31.5804 20.3478 31.5804C19.4674 31.5804 18.7826 30.8948 18.7826 30.0134C18.7826 29.132 19.4674 28.4464 20.3478 28.4464ZM36 28.4464C36.8804 28.4464 37.5652 29.132 37.5652 30.0134C37.5652 30.8948 36.8804 31.5804 36 31.5804C35.1196 31.5804 34.4348 30.8948 34.4348 30.0134C34.4348 29.132 35.1196 28.4464 36 28.4464ZM51.6522 28.4464C52.5326 28.4464 53.2174 29.132 53.2174 30.0134C53.2174 30.8948 52.5326 31.5804 51.6522 31.5804C50.7717 31.5804 50.087 30.8948 50.087 30.0134C50.087 29.132 50.7717 28.4464 51.6522 28.4464Z" fill="black" fill-opacity="0.2"/>
</svg>
