<svg width="20" height="12" viewBox="0 0 20 12" fill="none" xmlns="http://www.w3.org/2000/svg">
<path d="M19.0303 6.53033C19.3232 6.23744 19.3232 5.76256 19.0303 5.46967L14.2574 0.696699C13.9645 0.403806 13.4896 0.403806 13.1967 0.696699C12.9038 0.989593 12.9038 1.46447 13.1967 1.75736L17.4393 6L13.1967 10.2426C12.9038 10.5355 12.9038 11.0104 13.1967 11.3033C13.4896 11.5962 13.9645 11.5962 14.2574 11.3033L19.0303 6.53033ZM0.5 6.75H18.5V5.25H0.5V6.75Z" fill="#1E1E1E"/>
<path d="M19.0303 6.53033C19.3232 6.23744 19.3232 5.76256 19.0303 5.46967L14.2574 0.696699C13.9645 0.403806 13.4896 0.403806 13.1967 0.696699C12.9038 0.989593 12.9038 1.46447 13.1967 1.75736L17.4393 6L13.1967 10.2426C12.9038 10.5355 12.9038 11.0104 13.1967 11.3033C13.4896 11.5962 13.9645 11.5962 14.2574 11.3033L19.0303 6.53033ZM0.5 6.75H18.5V5.25H0.5V6.75Z" fill="black" fill-opacity="0.2"/>
<path d="M19.0303 6.53033C19.3232 6.23744 19.3232 5.76256 19.0303 5.46967L14.2574 0.696699C13.9645 0.403806 13.4896 0.403806 13.1967 0.696699C12.9038 0.989593 12.9038 1.46447 13.1967 1.75736L17.4393 6L13.1967 10.2426C12.9038 10.5355 12.9038 11.0104 13.1967 11.3033C13.4896 11.5962 13.9645 11.5962 14.2574 11.3033L19.0303 6.53033ZM0.5 6.75H18.5V5.25H0.5V6.75Z" fill="black" fill-opacity="0.2"/>
<path d="M19.0303 6.53033C19.3232 6.23744 19.3232 5.76256 19.0303 5.46967L14.2574 0.696699C13.9645 0.403806 13.4896 0.403806 13.1967 0.696699C12.9038 0.989593 12.9038 1.46447 13.1967 1.75736L17.4393 6L13.1967 10.2426C12.9038 10.5355 12.9038 11.0104 13.1967 11.3033C13.4896 11.5962 13.9645 11.5962 14.2574 11.3033L19.0303 6.53033ZM0.5 6.75H18.5V5.25H0.5V6.75Z" fill="black" fill-opacity="0.2"/>
<path d="M19.0303 6.53033C19.3232 6.23744 19.3232 5.76256 19.0303 5.46967L14.2574 0.696699C13.9645 0.403806 13.4896 0.403806 13.1967 0.696699C12.9038 0.989593 12.9038 1.46447 13.1967 1.75736L17.4393 6L13.1967 10.2426C12.9038 10.5355 12.9038 11.0104 13.1967 11.3033C13.4896 11.5962 13.9645 11.5962 14.2574 11.3033L19.0303 6.53033ZM0.5 6.75H18.5V5.25H0.5V6.75Z" fill="black" fill-opacity="0.2"/>
</svg>
