<svg width="36" height="36" viewBox="0 0 36 36" fill="none" xmlns="http://www.w3.org/2000/svg">
<rect x="0.5" y="0.5" width="35" height="35" rx="17.5" fill="#EBEBEB"/>
<rect x="0.5" y="0.5" width="35" height="35" rx="17.5" stroke="#F2F2F2"/>
<path d="M16.4 26V22.8C16.4 22.3757 16.5686 21.9687 16.8686 21.6686C17.1687 21.3686 17.5757 21.2 18 21.2C18.4243 21.2 18.8313 21.3686 19.1314 21.6686C19.4314 21.9687 19.6 22.3757 19.6 22.8V26H22.8V18C22.8 17.862 22.7642 17.7263 22.6962 17.6061C22.6282 17.486 22.5303 17.3855 22.412 17.3144L18.8 15.1472V13.2H20.4V11.6H18.8V10H17.2V11.6H15.6V13.2H17.2V15.1472L13.588 17.3144C13.4697 17.3855 13.3718 17.486 13.3038 17.6061C13.2358 17.7263 13.2 17.862 13.2 18V26H16.4ZM10.8 26H12.4V19.5056L10.4424 20.4848C10.3094 20.551 10.1976 20.6531 10.1194 20.7794C10.0412 20.9058 9.9999 21.0514 10 21.2V25.2C10 25.4122 10.0843 25.6157 10.2343 25.7657C10.3843 25.9157 10.5878 26 10.8 26ZM25.5576 20.484L23.6 19.5056V26H25.2C25.4122 26 25.6157 25.9157 25.7657 25.7657C25.9157 25.6157 26 25.4122 26 25.2V21.2C26 20.8968 25.8288 20.62 25.5576 20.484Z" fill="black"/>
</svg>
