<svg width="28" height="28" viewBox="0 0 28 28" fill="none" xmlns="http://www.w3.org/2000/svg">
<rect x="1" y="1" width="26" height="26" rx="13" fill="#ECECEC"/>
<rect x="1" y="1" width="26" height="26" rx="13" stroke="white" stroke-width="2"/>
<path d="M12.8 20V17.6C12.8 17.2817 12.9264 16.9765 13.1515 16.7515C13.3765 16.5264 13.6817 16.4 14 16.4C14.3183 16.4 14.6235 16.5264 14.8485 16.7515C15.0736 16.9765 15.2 17.2817 15.2 17.6V20H17.6V14C17.6 13.8965 17.5732 13.7947 17.5222 13.7046C17.4712 13.6145 17.3977 13.5391 17.309 13.4858L14.6 11.8604V10.4H15.8V9.2H14.6V8H13.4V9.2H12.2V10.4H13.4V11.8604L10.691 13.4858C10.6023 13.5391 10.5288 13.6145 10.4778 13.7046C10.4268 13.7947 10.4 13.8965 10.4 14V20H12.8ZM8.6 20H9.8V15.1292L8.3318 15.8636C8.23206 15.9133 8.14817 15.9898 8.08955 16.0846C8.03094 16.1793 7.99992 16.2886 8 16.4V19.4C8 19.5591 8.06321 19.7117 8.17574 19.8243C8.28826 19.9368 8.44087 20 8.6 20ZM19.6682 15.863L18.2 15.1292V20H19.4C19.5591 20 19.7117 19.9368 19.8243 19.8243C19.9368 19.7117 20 19.5591 20 19.4V16.4C20 16.1726 19.8716 15.965 19.6682 15.863Z" fill="black"/>
</svg>
