<svg width="64" height="64" viewBox="0 0 64 64" fill="none" xmlns="http://www.w3.org/2000/svg">
<rect width="64" height="64" rx="12" fill="#175081"/>
<path d="M21.36 37.73L21.9 38.27C20.25 40.52 18.57 41.42 16.17 41.42C12.42 41.42 9.75 38.63 9.75 34.34C9.75 29.87 12.87 26.81 16.86 26.81C19.47 26.81 21.48 28.19 21.48 30.11C21.48 31.28 20.7 32.03 19.44 32.03C18.42 32.03 17.76 31.28 17.76 29.84C17.76 28.43 17.76 27.74 16.5 27.74C15.03 27.74 13.98 29.54 13.98 32.81C13.98 36.89 15.54 39.41 18.15 39.41C19.38 39.41 20.25 38.99 21.36 37.73ZM46.7501 41H39.6401V40.28C40.7801 40.19 41.0801 39.77 41.0801 38.51V31.67C41.0801 29.81 40.6301 28.82 39.4901 28.82C38.9501 28.82 38.3801 29.03 37.7501 29.57C37.3601 29.87 36.9401 30.41 36.9401 30.56V38.51C36.9401 39.65 37.2701 40.16 38.3201 40.28V41H31.3601V40.28C32.4701 40.19 32.7701 39.74 32.7701 38.51V31.31C32.7701 29.51 32.3201 28.82 31.1501 28.82C30.4601 28.82 28.6301 29.96 28.6301 30.68V38.51C28.6301 39.65 28.9301 40.13 29.9801 40.28V41H22.8101V40.28C24.1301 40.04 24.4601 39.65 24.4601 38.42V29.81C24.4601 28.4 24.1001 28.07 22.7801 27.89V27.17H28.5401V29.42H28.6301C29.7701 27.59 31.0301 26.81 32.9501 26.81C34.8401 26.81 35.8901 27.53 36.7901 29.42C38.3501 27.5 39.4901 26.81 41.2001 26.81C43.6601 26.81 45.2501 28.4 45.2501 31.07V38.51C45.2501 39.8 45.5801 40.22 46.7501 40.28V41ZM53.7703 22.61C53.7703 23.93 52.7503 24.92 51.4303 24.92C50.1103 24.92 49.1203 23.93 49.1203 22.61C49.1203 21.29 50.1403 20.27 51.4903 20.27C52.7503 20.27 53.7703 21.32 53.7703 22.61ZM55.0003 41H47.8003V40.28C49.1803 39.95 49.3903 39.74 49.3903 38.36V29.81C49.3903 28.46 49.0903 28.16 47.7703 27.89V27.17H53.5603V38.45C53.5603 39.74 53.9503 40.13 55.0003 40.28V41Z" fill="white"/>
</svg>
