<svg width="74" height="35" viewBox="0 0 74 35" fill="none" xmlns="http://www.w3.org/2000/svg">
<path d="M19.276 28.768L20.14 29.632C17.5 33.232 14.812 34.672 10.972 34.672C4.972 34.672 0.7 30.208 0.7 23.344C0.7 16.192 5.692 11.296 12.076 11.296C16.252 11.296 19.468 13.504 19.468 16.576C19.468 18.448 18.22 19.648 16.204 19.648C14.572 19.648 13.516 18.448 13.516 16.144C13.516 13.888 13.516 12.784 11.5 12.784C9.148 12.784 7.468 15.664 7.468 20.896C7.468 27.424 9.964 31.456 14.14 31.456C16.108 31.456 17.5 30.784 19.276 28.768ZM59.9001 34H48.5241V32.848C50.3481 32.704 50.8281 32.032 50.8281 30.016V19.072C50.8281 16.096 50.1081 14.512 48.2841 14.512C47.4201 14.512 46.5081 14.848 45.5001 15.712C44.8761 16.192 44.2041 17.056 44.2041 17.296V30.016C44.2041 31.84 44.7321 32.656 46.4121 32.848V34H35.2761V32.848C37.0521 32.704 37.5321 31.984 37.5321 30.016V18.496C37.5321 15.616 36.8121 14.512 34.9401 14.512C33.8361 14.512 30.9081 16.336 30.9081 17.488V30.016C30.9081 31.84 31.3881 32.608 33.0681 32.848V34H21.5961V32.848C23.7081 32.464 24.2361 31.84 24.2361 29.872V16.096C24.2361 13.84 23.6601 13.312 21.5481 13.024V11.872H30.7641V15.472H30.9081C32.7321 12.544 34.7481 11.296 37.8201 11.296C40.8441 11.296 42.5241 12.448 43.9641 15.472C46.4601 12.4 48.2841 11.296 51.0201 11.296C54.9561 11.296 57.5001 13.84 57.5001 18.112V30.016C57.5001 32.08 58.0281 32.752 59.9001 32.848V34ZM71.1325 4.576C71.1325 6.688 69.5005 8.272 67.3885 8.272C65.2765 8.272 63.6925 6.688 63.6925 4.576C63.6925 2.464 65.3245 0.831998 67.4845 0.831998C69.5005 0.831998 71.1325 2.512 71.1325 4.576ZM73.1005 34H61.5805V32.848C63.7885 32.32 64.1245 31.984 64.1245 29.776V16.096C64.1245 13.936 63.6445 13.456 61.5325 13.024V11.872H70.7965V29.92C70.7965 31.984 71.4205 32.608 73.1005 32.848V34Z" fill="#1E1E1E"/>
<path d="M19.276 28.768L20.14 29.632C17.5 33.232 14.812 34.672 10.972 34.672C4.972 34.672 0.7 30.208 0.7 23.344C0.7 16.192 5.692 11.296 12.076 11.296C16.252 11.296 19.468 13.504 19.468 16.576C19.468 18.448 18.22 19.648 16.204 19.648C14.572 19.648 13.516 18.448 13.516 16.144C13.516 13.888 13.516 12.784 11.5 12.784C9.148 12.784 7.468 15.664 7.468 20.896C7.468 27.424 9.964 31.456 14.14 31.456C16.108 31.456 17.5 30.784 19.276 28.768ZM59.9001 34H48.5241V32.848C50.3481 32.704 50.8281 32.032 50.8281 30.016V19.072C50.8281 16.096 50.1081 14.512 48.2841 14.512C47.4201 14.512 46.5081 14.848 45.5001 15.712C44.8761 16.192 44.2041 17.056 44.2041 17.296V30.016C44.2041 31.84 44.7321 32.656 46.4121 32.848V34H35.2761V32.848C37.0521 32.704 37.5321 31.984 37.5321 30.016V18.496C37.5321 15.616 36.8121 14.512 34.9401 14.512C33.8361 14.512 30.9081 16.336 30.9081 17.488V30.016C30.9081 31.84 31.3881 32.608 33.0681 32.848V34H21.5961V32.848C23.7081 32.464 24.2361 31.84 24.2361 29.872V16.096C24.2361 13.84 23.6601 13.312 21.5481 13.024V11.872H30.7641V15.472H30.9081C32.7321 12.544 34.7481 11.296 37.8201 11.296C40.8441 11.296 42.5241 12.448 43.9641 15.472C46.4601 12.4 48.2841 11.296 51.0201 11.296C54.9561 11.296 57.5001 13.84 57.5001 18.112V30.016C57.5001 32.08 58.0281 32.752 59.9001 32.848V34ZM71.1325 4.576C71.1325 6.688 69.5005 8.272 67.3885 8.272C65.2765 8.272 63.6925 6.688 63.6925 4.576C63.6925 2.464 65.3245 0.831998 67.4845 0.831998C69.5005 0.831998 71.1325 2.512 71.1325 4.576ZM73.1005 34H61.5805V32.848C63.7885 32.32 64.1245 31.984 64.1245 29.776V16.096C64.1245 13.936 63.6445 13.456 61.5325 13.024V11.872H70.7965V29.92C70.7965 31.984 71.4205 32.608 73.1005 32.848V34Z" fill="black" fill-opacity="0.2"/>
<path d="M19.276 28.768L20.14 29.632C17.5 33.232 14.812 34.672 10.972 34.672C4.972 34.672 0.7 30.208 0.7 23.344C0.7 16.192 5.692 11.296 12.076 11.296C16.252 11.296 19.468 13.504 19.468 16.576C19.468 18.448 18.22 19.648 16.204 19.648C14.572 19.648 13.516 18.448 13.516 16.144C13.516 13.888 13.516 12.784 11.5 12.784C9.148 12.784 7.468 15.664 7.468 20.896C7.468 27.424 9.964 31.456 14.14 31.456C16.108 31.456 17.5 30.784 19.276 28.768ZM59.9001 34H48.5241V32.848C50.3481 32.704 50.8281 32.032 50.8281 30.016V19.072C50.8281 16.096 50.1081 14.512 48.2841 14.512C47.4201 14.512 46.5081 14.848 45.5001 15.712C44.8761 16.192 44.2041 17.056 44.2041 17.296V30.016C44.2041 31.84 44.7321 32.656 46.4121 32.848V34H35.2761V32.848C37.0521 32.704 37.5321 31.984 37.5321 30.016V18.496C37.5321 15.616 36.8121 14.512 34.9401 14.512C33.8361 14.512 30.9081 16.336 30.9081 17.488V30.016C30.9081 31.84 31.3881 32.608 33.0681 32.848V34H21.5961V32.848C23.7081 32.464 24.2361 31.84 24.2361 29.872V16.096C24.2361 13.84 23.6601 13.312 21.5481 13.024V11.872H30.7641V15.472H30.9081C32.7321 12.544 34.7481 11.296 37.8201 11.296C40.8441 11.296 42.5241 12.448 43.9641 15.472C46.4601 12.4 48.2841 11.296 51.0201 11.296C54.9561 11.296 57.5001 13.84 57.5001 18.112V30.016C57.5001 32.08 58.0281 32.752 59.9001 32.848V34ZM71.1325 4.576C71.1325 6.688 69.5005 8.272 67.3885 8.272C65.2765 8.272 63.6925 6.688 63.6925 4.576C63.6925 2.464 65.3245 0.831998 67.4845 0.831998C69.5005 0.831998 71.1325 2.512 71.1325 4.576ZM73.1005 34H61.5805V32.848C63.7885 32.32 64.1245 31.984 64.1245 29.776V16.096C64.1245 13.936 63.6445 13.456 61.5325 13.024V11.872H70.7965V29.92C70.7965 31.984 71.4205 32.608 73.1005 32.848V34Z" fill="black" fill-opacity="0.2"/>
<path d="M19.276 28.768L20.14 29.632C17.5 33.232 14.812 34.672 10.972 34.672C4.972 34.672 0.7 30.208 0.7 23.344C0.7 16.192 5.692 11.296 12.076 11.296C16.252 11.296 19.468 13.504 19.468 16.576C19.468 18.448 18.22 19.648 16.204 19.648C14.572 19.648 13.516 18.448 13.516 16.144C13.516 13.888 13.516 12.784 11.5 12.784C9.148 12.784 7.468 15.664 7.468 20.896C7.468 27.424 9.964 31.456 14.14 31.456C16.108 31.456 17.5 30.784 19.276 28.768ZM59.9001 34H48.5241V32.848C50.3481 32.704 50.8281 32.032 50.8281 30.016V19.072C50.8281 16.096 50.1081 14.512 48.2841 14.512C47.4201 14.512 46.5081 14.848 45.5001 15.712C44.8761 16.192 44.2041 17.056 44.2041 17.296V30.016C44.2041 31.84 44.7321 32.656 46.4121 32.848V34H35.2761V32.848C37.0521 32.704 37.5321 31.984 37.5321 30.016V18.496C37.5321 15.616 36.8121 14.512 34.9401 14.512C33.8361 14.512 30.9081 16.336 30.9081 17.488V30.016C30.9081 31.84 31.3881 32.608 33.0681 32.848V34H21.5961V32.848C23.7081 32.464 24.2361 31.84 24.2361 29.872V16.096C24.2361 13.84 23.6601 13.312 21.5481 13.024V11.872H30.7641V15.472H30.9081C32.7321 12.544 34.7481 11.296 37.8201 11.296C40.8441 11.296 42.5241 12.448 43.9641 15.472C46.4601 12.4 48.2841 11.296 51.0201 11.296C54.9561 11.296 57.5001 13.84 57.5001 18.112V30.016C57.5001 32.08 58.0281 32.752 59.9001 32.848V34ZM71.1325 4.576C71.1325 6.688 69.5005 8.272 67.3885 8.272C65.2765 8.272 63.6925 6.688 63.6925 4.576C63.6925 2.464 65.3245 0.831998 67.4845 0.831998C69.5005 0.831998 71.1325 2.512 71.1325 4.576ZM73.1005 34H61.5805V32.848C63.7885 32.32 64.1245 31.984 64.1245 29.776V16.096C64.1245 13.936 63.6445 13.456 61.5325 13.024V11.872H70.7965V29.92C70.7965 31.984 71.4205 32.608 73.1005 32.848V34Z" fill="black" fill-opacity="0.2"/>
<path d="M19.276 28.768L20.14 29.632C17.5 33.232 14.812 34.672 10.972 34.672C4.972 34.672 0.7 30.208 0.7 23.344C0.7 16.192 5.692 11.296 12.076 11.296C16.252 11.296 19.468 13.504 19.468 16.576C19.468 18.448 18.22 19.648 16.204 19.648C14.572 19.648 13.516 18.448 13.516 16.144C13.516 13.888 13.516 12.784 11.5 12.784C9.148 12.784 7.468 15.664 7.468 20.896C7.468 27.424 9.964 31.456 14.14 31.456C16.108 31.456 17.5 30.784 19.276 28.768ZM59.9001 34H48.5241V32.848C50.3481 32.704 50.8281 32.032 50.8281 30.016V19.072C50.8281 16.096 50.1081 14.512 48.2841 14.512C47.4201 14.512 46.5081 14.848 45.5001 15.712C44.8761 16.192 44.2041 17.056 44.2041 17.296V30.016C44.2041 31.84 44.7321 32.656 46.4121 32.848V34H35.2761V32.848C37.0521 32.704 37.5321 31.984 37.5321 30.016V18.496C37.5321 15.616 36.8121 14.512 34.9401 14.512C33.8361 14.512 30.9081 16.336 30.9081 17.488V30.016C30.9081 31.84 31.3881 32.608 33.0681 32.848V34H21.5961V32.848C23.7081 32.464 24.2361 31.84 24.2361 29.872V16.096C24.2361 13.84 23.6601 13.312 21.5481 13.024V11.872H30.7641V15.472H30.9081C32.7321 12.544 34.7481 11.296 37.8201 11.296C40.8441 11.296 42.5241 12.448 43.9641 15.472C46.4601 12.4 48.2841 11.296 51.0201 11.296C54.9561 11.296 57.5001 13.84 57.5001 18.112V30.016C57.5001 32.08 58.0281 32.752 59.9001 32.848V34ZM71.1325 4.576C71.1325 6.688 69.5005 8.272 67.3885 8.272C65.2765 8.272 63.6925 6.688 63.6925 4.576C63.6925 2.464 65.3245 0.831998 67.4845 0.831998C69.5005 0.831998 71.1325 2.512 71.1325 4.576ZM73.1005 34H61.5805V32.848C63.7885 32.32 64.1245 31.984 64.1245 29.776V16.096C64.1245 13.936 63.6445 13.456 61.5325 13.024V11.872H70.7965V29.92C70.7965 31.984 71.4205 32.608 73.1005 32.848V34Z" fill="black" fill-opacity="0.2"/>
</svg>
