<svg width="17" height="16" viewBox="0 0 17 16" fill="none" xmlns="http://www.w3.org/2000/svg">
<path d="M9.59804 11.7647C9.59804 11.8895 9.54846 12.0092 9.46021 12.0975C9.37196 12.1857 9.25226 12.2353 9.12745 12.2353C8.83623 12.2353 8.55694 12.1196 8.35102 11.9137C8.1451 11.7078 8.02941 11.4285 8.02941 11.1373V8C8.02941 7.9584 8.01289 7.9185 7.98347 7.88908C7.95405 7.85966 7.91415 7.84314 7.87255 7.84314C7.74774 7.84314 7.62805 7.79356 7.53979 7.7053C7.45154 7.61705 7.40196 7.49735 7.40196 7.37255C7.40196 7.24774 7.45154 7.12804 7.53979 7.03979C7.62805 6.95154 7.74774 6.90196 7.87255 6.90196C8.16377 6.90196 8.44306 7.01764 8.64898 7.22357C8.8549 7.42949 8.97059 7.70878 8.97059 8V11.1373C8.97059 11.1789 8.98712 11.2188 9.01653 11.2482C9.04595 11.2776 9.08585 11.2941 9.12745 11.2941C9.25226 11.2941 9.37196 11.3437 9.46021 11.4319C9.54846 11.5202 9.59804 11.6399 9.59804 11.7647ZM8.18628 5.33333C8.3414 5.33333 8.49304 5.28733 8.62202 5.20115C8.751 5.11497 8.85153 4.99248 8.91089 4.84916C8.97025 4.70585 8.98578 4.54815 8.95552 4.39601C8.92526 4.24386 8.85056 4.10411 8.74087 3.99443C8.63118 3.88474 8.49143 3.81004 8.33929 3.77978C8.18715 3.74951 8.02945 3.76504 7.88613 3.82441C7.74282 3.88377 7.62032 3.9843 7.53414 4.11328C7.44796 4.24226 7.40196 4.3939 7.40196 4.54902C7.40196 4.75703 7.4846 4.95652 7.63168 5.10361C7.77877 5.2507 7.97826 5.33333 8.18628 5.33333ZM16.5 8C16.5 9.58225 16.0308 11.129 15.1518 12.4446C14.2727 13.7602 13.0233 14.7855 11.5615 15.391C10.0997 15.9965 8.49113 16.155 6.93928 15.8463C5.38743 15.5376 3.96197 14.7757 2.84315 13.6569C1.72433 12.538 0.962403 11.1126 0.653721 9.56072C0.34504 8.00887 0.503466 6.40034 1.10897 4.93853C1.71447 3.47672 2.73985 2.22729 4.05544 1.34824C5.37103 0.469192 6.91775 0 8.5 0C10.621 0.00249086 12.6544 0.846145 14.1541 2.3459C15.6539 3.84565 16.4975 5.87903 16.5 8ZM15.5588 8C15.5588 6.6039 15.1448 5.23914 14.3692 4.07833C13.5936 2.91751 12.4911 2.01276 11.2013 1.4785C9.91146 0.944232 8.49217 0.804443 7.12289 1.07681C5.75362 1.34918 4.49585 2.02146 3.50866 3.00866C2.52147 3.99585 1.84918 5.25361 1.57681 6.62289C1.30445 7.99217 1.44424 9.41146 1.9785 10.7013C2.51277 11.9911 3.41751 13.0936 4.57833 13.8692C5.73915 14.6448 7.1039 15.0588 8.5 15.0588C10.3715 15.0567 12.1657 14.3124 13.489 12.989C14.8124 11.6657 15.5567 9.87148 15.5588 8Z" fill="#808080"/>
</svg>
