<svg width="80" height="15" viewBox="0 0 80 15" fill="none" xmlns="http://www.w3.org/2000/svg">
<path fill-rule="evenodd" clip-rule="evenodd" d="M0 7.5V15H14.8159V0H0V7.5ZM39.549 7.31855V10.5847H40.8035V4.05242H39.549V7.31855ZM46.6582 10.5847V7.31855V4.05242H47.9128V10.5847H46.6582ZM51.8736 4.14315C51.7004 4.19153 51.4495 4.28831 51.3181 4.35484C51.1866 4.42137 50.9835 4.56653 50.864 4.6754C50.7445 4.77823 50.5832 5.00806 50.5056 5.17137C50.3921 5.41331 50.3622 5.57056 50.3622 5.92742C50.3622 6.27218 50.398 6.45363 50.4996 6.68347C50.5773 6.85282 50.7326 7.06452 50.8461 7.16129C50.9596 7.25806 51.1687 7.39113 51.3181 7.45161C51.4674 7.51814 52.029 7.6875 52.5726 7.83266C53.1163 7.97177 53.6719 8.14718 53.8153 8.21976C53.9527 8.28629 54.096 8.40726 54.1319 8.48589C54.1737 8.55847 54.1856 8.75202 54.1677 8.92137C54.1438 9.16935 54.102 9.25403 53.9407 9.3871C53.8272 9.47782 53.6062 9.58669 53.4389 9.62298C53.2776 9.66532 52.9789 9.68347 52.7817 9.66532C52.5846 9.64718 52.3157 9.58064 52.1843 9.51411C52.0529 9.44758 51.8557 9.29032 51.7542 9.16936C51.6347 9.04234 51.5391 8.84879 51.5152 8.70363L51.4674 8.45565C50.7266 8.51613 50.4219 8.54637 50.3204 8.55847C50.1411 8.58871 50.1292 8.60081 50.1591 8.75806C50.183 8.84879 50.2487 9.06048 50.3084 9.22379C50.3682 9.39314 50.5414 9.67137 50.7027 9.85282C50.8999 10.0706 51.1209 10.2399 51.4077 10.379C51.6407 10.494 51.9752 10.6149 52.1544 10.6452C52.3337 10.6815 52.722 10.7056 53.0207 10.7056C53.3194 10.7056 53.7256 10.6633 53.9347 10.6149C54.1379 10.5665 54.4127 10.4698 54.5441 10.4032C54.6755 10.3367 54.8966 10.1794 55.04 10.0464C55.1833 9.91936 55.3506 9.67742 55.4342 9.48992C55.5537 9.20564 55.5717 9.09677 55.5478 8.64919C55.5298 8.29234 55.482 8.0625 55.3984 7.89315C55.3327 7.76008 55.1714 7.55444 55.0459 7.43347C54.9145 7.31855 54.6516 7.15524 54.4545 7.08266C54.2573 7.00403 53.6719 6.83468 53.1581 6.70766C52.6383 6.5746 52.1305 6.42944 52.035 6.38105C51.9394 6.33266 51.8139 6.22984 51.7661 6.15121C51.7183 6.07863 51.6765 5.92742 51.6765 5.81855C51.6765 5.69153 51.7362 5.55847 51.8438 5.43145C51.9334 5.32863 52.0947 5.20766 52.2022 5.15927C52.3038 5.11694 52.5726 5.08065 52.7996 5.08065C53.0506 5.08065 53.2895 5.12298 53.4389 5.18952C53.5703 5.25 53.7495 5.39516 53.8391 5.51008C53.9228 5.625 54.0124 5.78831 54.0303 5.88508C54.0662 6.04234 54.0841 6.04839 54.4127 6.04839C54.5979 6.04839 54.8966 6.02419 55.0698 6C55.2849 5.96976 55.3805 5.92742 55.3805 5.86694C55.3805 5.81855 55.2909 5.58266 55.1774 5.35282C55.0579 5.10484 54.8667 4.83266 54.7114 4.69355C54.574 4.56048 54.2812 4.37298 54.0662 4.27016C53.7077 4.10081 53.6181 4.08266 52.9311 4.07056C52.4053 4.05847 52.0887 4.08266 51.8736 4.14315ZM67.6873 6.35081V5.20161V4.05242H68.9418V10.5847H67.747V10.3548C67.747 10.2339 67.7291 10.1129 67.7052 10.0887C67.6753 10.0645 67.6096 10.1129 67.5558 10.1915C67.4961 10.2762 67.293 10.4153 67.1078 10.506C66.815 10.6452 66.6836 10.6754 66.2833 10.6754C65.9368 10.6694 65.7337 10.6391 65.5366 10.5484C65.3872 10.4819 65.1662 10.3488 65.0407 10.246C64.9093 10.1492 64.7241 9.93145 64.6225 9.76814C64.521 9.60484 64.3895 9.30847 64.3298 9.11492C64.2581 8.89718 64.2222 8.57661 64.2222 8.24395C64.2222 7.94758 64.2641 7.54839 64.3119 7.34879C64.3656 7.14919 64.4911 6.84073 64.5986 6.66532C64.7062 6.48387 64.8854 6.26008 64.9989 6.16935C65.1124 6.07258 65.3454 5.93952 65.5067 5.86089C65.7058 5.77218 65.9348 5.72581 66.1937 5.72177C66.4088 5.72177 66.7135 5.75806 66.8748 5.80645C67.0361 5.85484 67.287 6 67.6873 6.35081ZM69.6109 4.69355L69.6289 5.17137L70.8536 5.20161V4.05242C69.8081 4.05242 69.6468 4.07056 69.6229 4.13105C69.605 4.17944 69.599 4.42742 69.6109 4.69355ZM19.4758 10.5847L19.4817 7.37298V4.16734L21.3457 4.18548C23.0842 4.20363 23.2275 4.20968 23.4785 4.33065C23.6278 4.39718 23.8548 4.54839 23.9803 4.66331C24.1117 4.77823 24.279 5.00202 24.3567 5.17137C24.4522 5.38911 24.4941 5.58266 24.4941 5.86694C24.4941 6.11492 24.4522 6.35081 24.3806 6.50202C24.3208 6.63508 24.1774 6.83468 24.058 6.9375C23.9325 7.04637 23.8011 7.1371 23.7592 7.1371C23.7234 7.1371 23.7831 7.19758 23.8966 7.26411C24.0102 7.33669 24.1834 7.46371 24.273 7.55444C24.3686 7.63911 24.4941 7.81452 24.5598 7.93548C24.6195 8.0625 24.6912 8.31048 24.7091 8.47984C24.733 8.65524 24.7151 8.95161 24.6793 9.13306C24.6434 9.31452 24.5299 9.59879 24.4224 9.76814C24.3029 9.9496 24.1117 10.1431 23.9265 10.252C23.7592 10.3548 23.4665 10.4698 23.2694 10.5121C23.0364 10.5605 22.3254 10.5847 19.4758 10.5847ZM56.5813 5.13508V5.8004H55.8046L55.8345 6.67742L56.5813 6.70766C56.5813 9.68952 56.5932 9.91331 56.6828 10.0948C56.7426 10.2097 56.88 10.3609 56.9995 10.4274C57.1727 10.5302 57.3281 10.5544 57.9972 10.5665L58.7917 10.5786L58.7619 9.58064C58.0868 9.5504 57.9613 9.52016 57.9076 9.44758C57.8538 9.36895 57.8299 8.99395 57.8299 8.02621L57.8359 6.70766H58.7917V5.8004H57.8359L57.806 4.5L56.5813 4.46976V5.13508ZM26.2624 6.00605C26.3938 5.92742 26.6746 5.8246 26.8897 5.77016C27.1227 5.71573 27.4334 5.69153 27.6663 5.70968C27.8814 5.72782 28.1921 5.77621 28.3534 5.8246C28.5206 5.87903 28.7835 6.00605 28.9448 6.11492C29.1061 6.22379 29.3212 6.43548 29.4227 6.58669C29.5183 6.7379 29.6557 6.99798 29.7155 7.16129C29.7752 7.33065 29.8469 7.6875 29.9067 8.46169H26.4416L26.4894 8.74597C26.5133 8.90927 26.597 9.13911 26.6687 9.26613C26.7403 9.39314 26.8837 9.5504 26.9793 9.61089C27.0809 9.67137 27.2541 9.7379 27.3676 9.7621C27.4811 9.78629 27.6962 9.76814 27.8456 9.73185C28.0069 9.68347 28.1921 9.58064 28.3116 9.45363C28.4131 9.33871 28.5027 9.1996 28.5027 9.14516C28.5027 9.04234 28.5505 9.04234 29.142 9.08468C29.5004 9.11492 29.7991 9.15121 29.817 9.16331C29.835 9.18145 29.7872 9.31452 29.7155 9.45968C29.6378 9.61089 29.4646 9.85887 29.3272 10.0101C29.1838 10.1613 28.9388 10.3488 28.7716 10.4335C28.6103 10.5121 28.2578 10.6089 27.9949 10.6452C27.6305 10.6996 27.4154 10.6996 27.0988 10.6452C26.8718 10.6089 26.5492 10.5121 26.3819 10.4335C26.2206 10.3488 25.9637 10.1552 25.8144 9.99193C25.671 9.83468 25.4917 9.56855 25.4141 9.39919C25.3424 9.23589 25.2528 8.90927 25.211 8.67339C25.1572 8.34677 25.1572 8.13508 25.211 7.76613C25.2468 7.5 25.3424 7.14919 25.4141 6.97984C25.4917 6.81653 25.659 6.55645 25.7905 6.41129C25.9159 6.26613 26.131 6.08468 26.2624 6.00605ZM36.3289 5.73387C36.1795 5.75806 35.9107 5.84879 35.7315 5.93347C35.5522 6.0121 35.3013 6.1754 35.1759 6.29032C35.0504 6.40524 34.8951 6.61089 34.8294 6.75605C34.7696 6.89516 34.7278 7.04637 34.7398 7.08871C34.7517 7.125 34.9011 7.17944 35.0803 7.20968C35.2595 7.23387 35.4985 7.27016 35.612 7.28831C35.8032 7.3246 35.833 7.3125 35.9585 7.10685C36.0302 6.98589 36.1795 6.83468 36.2871 6.76815C36.4185 6.68347 36.5858 6.64718 36.8247 6.64718C37.0099 6.64718 37.237 6.68347 37.3325 6.73185C37.4222 6.77419 37.5118 6.85887 37.5416 6.91331C37.5655 6.96774 37.5835 7.09476 37.5835 7.19153C37.5835 7.3125 37.5396 7.40323 37.452 7.46371C37.3744 7.51815 37.004 7.60887 36.6276 7.6754C36.2512 7.74194 35.8091 7.83871 35.6418 7.8871C35.4805 7.93548 35.2237 8.0504 35.0743 8.14113C34.8831 8.2621 34.7636 8.40726 34.6621 8.6129C34.5665 8.81855 34.5187 9.02419 34.5127 9.24798C34.5127 9.48387 34.5546 9.66532 34.6621 9.88306C34.7636 10.0948 34.9011 10.246 35.1042 10.3851C35.2715 10.494 35.5463 10.6089 35.7315 10.6452C35.9107 10.6815 36.1974 10.6935 36.3587 10.6694C36.526 10.6452 36.7769 10.5726 36.9263 10.5121C37.0756 10.4516 37.2788 10.3185 37.3744 10.2157C37.4759 10.1129 37.5715 10.0343 37.6014 10.0343C37.6253 10.0343 37.6432 10.1008 37.6432 10.1855C37.6432 10.2702 37.6731 10.3911 37.7029 10.4577C37.7567 10.5665 37.8224 10.5786 38.3481 10.5786H38.9276C38.9077 9.57056 38.8918 8.73387 38.8798 8.06855C38.8619 6.98589 38.85 6.83468 38.7365 6.61694C38.6708 6.48387 38.5035 6.27218 38.3661 6.15121C38.2287 6.02419 37.9957 5.88508 37.8403 5.83669C37.679 5.78831 37.3385 5.73992 37.0756 5.72177C36.8128 5.70363 36.4782 5.70968 36.3289 5.73387ZM42.6197 5.93347C42.775 5.86089 43.0438 5.77621 43.2171 5.74597C43.3844 5.71573 43.7189 5.70363 43.9459 5.72177C44.1789 5.73992 44.5135 5.80645 44.6927 5.87903C44.8719 5.95161 45.1288 6.09073 45.2603 6.19355C45.3917 6.29637 45.5888 6.52621 45.6964 6.70766C45.8039 6.88911 45.9174 7.1371 45.9533 7.25202C45.9891 7.36694 46.0369 7.6875 46.0966 8.46169H44.382C42.781 8.46169 42.6615 8.46774 42.6615 8.57056C42.6615 8.625 42.6973 8.8125 42.7451 8.97581C42.8049 9.18145 42.9064 9.35081 43.0618 9.49597C43.2051 9.62903 43.3784 9.72581 43.5277 9.75605C43.6711 9.78024 43.8742 9.77419 44.0355 9.73185C44.1849 9.68952 44.3701 9.59879 44.4418 9.53226C44.5195 9.45968 44.621 9.32661 44.7524 9.06653L45.3678 9.10282C45.6158 9.11628 45.8343 9.13305 45.9356 9.14083C45.9709 9.14354 45.992 9.14516 45.9951 9.14516C46.007 9.15121 45.9831 9.26613 45.9413 9.39919C45.8995 9.53226 45.7262 9.79234 45.559 9.97379C45.3678 10.1794 45.1348 10.3609 44.9436 10.4456C44.7704 10.5181 44.4239 10.6089 44.173 10.6452C43.8205 10.6996 43.6054 10.6996 43.2888 10.6452C43.0618 10.6028 42.7272 10.5 42.548 10.4093C42.3747 10.3185 42.1178 10.125 41.9864 9.97379C41.849 9.82258 41.6817 9.55645 41.6041 9.3871C41.5264 9.21169 41.4428 8.88508 41.4189 8.66129C41.389 8.43145 41.389 8.0625 41.4129 7.82661C41.4368 7.59677 41.5145 7.23992 41.5921 7.04032C41.6817 6.78629 41.8191 6.58065 42.0282 6.375C42.1955 6.20565 42.4584 6.00605 42.6197 5.93347ZM73.3687 5.73992C73.2193 5.76411 72.9266 5.86089 72.7175 5.95766C72.4487 6.08468 72.2515 6.22984 72.0424 6.46573C71.8811 6.64718 71.6899 6.9496 71.6183 7.13105C71.5167 7.40323 71.4928 7.59073 71.4928 8.18952C71.4928 8.78831 71.5167 8.97581 71.6183 9.24798C71.6959 9.44153 71.8811 9.72581 72.0663 9.93145C72.2515 10.1431 72.5084 10.3488 72.6817 10.4335C72.8489 10.5121 73.1715 10.6089 73.3986 10.6452C73.6913 10.6935 73.9422 10.6996 74.2349 10.6573C74.4679 10.621 74.8025 10.5302 74.9817 10.4516C75.1609 10.3669 75.4298 10.1794 75.5791 10.0343C75.7225 9.88306 75.9256 9.58669 76.0272 9.36895C76.2004 8.99395 76.2064 8.93952 76.2064 8.18952C76.2064 7.45766 76.1945 7.37903 76.0451 7.05847C75.9495 6.86492 75.7524 6.56855 75.597 6.39919C75.4357 6.22984 75.1789 6.03024 75.0116 5.95161C74.8503 5.86694 74.5396 5.77621 74.3245 5.73992C74.1095 5.70968 73.8705 5.68548 73.7869 5.68548C73.7032 5.69153 73.518 5.71573 73.3687 5.73992ZM30.295 6.82863V6.31452V5.8004H34.1184V6.85887L31.7885 9.52016L34.1184 9.5504V10.5786H30.1755V9.52016L32.5174 6.85887L30.295 6.82863ZM59.3294 7.59677C59.3294 9.03024 59.3473 9.45363 59.419 9.67137C59.4668 9.82258 59.6042 10.0524 59.7297 10.1794C59.8551 10.3125 60.0762 10.4758 60.2255 10.5423C60.4227 10.6331 60.6198 10.6633 60.9723 10.6633C61.3248 10.6633 61.5219 10.6331 61.7191 10.5423C61.8684 10.4758 62.0895 10.3246 62.209 10.2097L62.43 10.004L62.436 10.5786H63.6905L63.6607 5.83065H62.4061C62.3464 8.83669 62.3344 8.99395 62.2269 9.1754C62.1612 9.28427 62.0118 9.43548 61.8983 9.50806C61.7549 9.59879 61.5936 9.63508 61.3905 9.63508C61.2172 9.63508 61.0261 9.59274 60.9305 9.53226C60.8349 9.47782 60.7274 9.36895 60.6915 9.29637C60.6377 9.1996 60.6079 8.66129 60.584 7.49395L60.5541 5.83065L59.3354 5.79435L59.3294 7.59677ZM69.593 8.23186C69.587 6.9375 69.605 5.86089 69.6289 5.84274C69.6587 5.81855 69.9455 5.8004 70.8536 5.8004V10.5786H69.599L69.593 8.23186ZM78.3213 8.25605C78.1779 8.30443 77.9628 8.43145 77.8553 8.54032C77.7418 8.64919 77.6044 8.84274 77.5387 8.97581C77.4789 9.10887 77.4311 9.31452 77.4311 9.42943C77.4311 9.54435 77.455 9.7379 77.4849 9.85282C77.5148 9.96774 77.6402 10.1794 77.7537 10.3246C77.8792 10.4758 78.0644 10.621 78.2197 10.6754C78.381 10.7359 78.602 10.7661 78.8111 10.754C79.068 10.7359 79.2114 10.6875 79.4086 10.5484C79.5798 10.4274 79.7212 10.256 79.8327 10.0343C79.9223 9.85282 80 9.62298 80 9.52016C79.994 9.42339 79.9701 9.23589 79.9343 9.11492C79.9044 8.9879 79.761 8.76411 79.6236 8.60685C79.4384 8.40726 79.2891 8.31048 79.068 8.24395C78.9067 8.19556 78.7335 8.15927 78.6797 8.16532C78.6319 8.16532 78.4706 8.20766 78.3213 8.25605ZM4.70777 2.4244L2.50928 2.41835V2.78125C4.25971 2.78125 4.65998 2.80545 4.65998 2.84174C4.65998 2.87803 5.32908 2.90222 6.54184 2.90222C8.38188 2.90222 8.4237 2.90222 8.4237 3.02319C8.4237 3.14416 8.46552 3.14416 10.1682 3.14416L11.9186 3.13811C11.6856 2.94456 11.4586 2.80545 11.2614 2.70262L10.903 2.50908C7.80238 2.44859 5.91455 2.43045 4.70777 2.4244ZM5.9026 3.32561H2.50928V3.68851C4.25971 3.68851 4.65998 3.7127 4.65998 3.74899C4.65998 3.78528 5.32908 3.80948 6.54184 3.80948C8.38188 3.80948 8.4237 3.80948 8.4237 3.93045C8.4237 4.05141 8.46552 4.05141 10.4549 4.05141C12.0381 4.05141 12.4861 4.03327 12.4861 3.97883C12.4861 3.93649 12.4204 3.79133 12.3368 3.65827L12.1814 3.41633C9.94113 3.34375 7.76654 3.32561 5.9026 3.32561ZM7.55744 4.23287H2.50928V4.53528C4.49867 4.53528 4.65998 4.54738 4.65998 4.62601C4.65998 4.70464 4.80336 4.71674 5.58597 4.71674C6.36859 4.71674 6.51197 4.70464 6.51197 4.62601C6.51197 4.54738 6.66729 4.53528 7.5455 4.53528C8.10707 4.53528 8.73435 4.56553 8.9315 4.59577C9.13462 4.63206 9.37956 4.72278 9.49905 4.80746C9.53318 4.83214 9.56174 4.8528 9.59221 4.87008C9.74842 4.95867 9.95487 4.95867 11.2196 4.95867H12.7251C12.6713 4.55948 12.6474 4.39617 12.6295 4.34174C12.6056 4.23891 12.3129 4.23287 7.55744 4.23287ZM6.51197 5.14012H2.50928V5.44254C4.48672 5.44254 4.66595 5.45464 4.68985 5.53327C4.71374 5.60585 4.87505 5.62399 5.61584 5.62399H6.51197V5.14012ZM11.2196 5.14012H9.72009L9.75594 5.27924C9.77983 5.35182 9.79775 5.51512 9.79775 5.64214V5.86593H12.6056C12.6594 5.46674 12.6833 5.30343 12.7012 5.24899C12.7251 5.14617 12.6235 5.14012 11.2196 5.14012ZM22.8095 5.35182C22.6482 5.25504 22.4749 5.23085 21.7401 5.20666C21.0172 5.18851 20.8559 5.20061 20.832 5.26714C20.8141 5.31553 20.8022 5.67843 20.8081 6.07762L20.8201 6.80343C22.5048 6.79738 22.6362 6.77924 22.8095 6.67641C22.917 6.60988 23.0365 6.49496 23.0783 6.41028C23.1201 6.33166 23.15 6.15625 23.15 6.01714C23.15 5.87198 23.1201 5.69658 23.0783 5.61795C23.0365 5.53327 22.917 5.41835 22.8095 5.35182ZM7.4977 6.04738H2.50928V6.3498C4.4927 6.3498 4.66595 6.3619 4.68985 6.44053C4.71972 6.51311 4.97661 6.53125 6.54184 6.53125C8.31616 6.53125 8.36993 6.53125 8.39383 6.65222C8.4237 6.76714 8.47746 6.77319 10.2339 6.77319C11.8198 6.77319 12.0117 6.77319 12.1241 6.6787C12.1396 6.6657 12.1536 6.6509 12.1695 6.63407C12.2352 6.56149 12.3368 6.41028 12.3905 6.30141C12.4443 6.19254 12.4861 6.08972 12.4861 6.07762C12.4861 6.05948 10.2458 6.04738 7.4977 6.04738ZM27.8397 6.64617C27.7262 6.61593 27.5649 6.59174 27.4813 6.59174C27.4036 6.59174 27.2244 6.64012 27.093 6.70061C26.9615 6.76109 26.8122 6.86391 26.7524 6.93045C26.6987 6.99093 26.615 7.14214 26.5613 7.26916C26.5075 7.39617 26.4657 7.52319 26.4657 7.55948C26.4657 7.59577 26.854 7.61996 27.5111 7.61996C28.4013 7.61996 28.5566 7.60182 28.5566 7.52924C28.5566 7.4748 28.5327 7.35988 28.4969 7.26916C28.461 7.17843 28.3475 7.01512 28.24 6.90625C28.1384 6.79738 27.9592 6.68246 27.8397 6.64617ZM44.2985 6.76714C44.2029 6.70666 43.9998 6.64012 43.8505 6.62198C43.6832 6.59778 43.498 6.62198 43.3427 6.67641C43.2112 6.73085 43.0559 6.81553 42.9962 6.87601C42.9424 6.93649 42.8588 7.06351 42.811 7.16633C42.7691 7.26311 42.7154 7.40827 42.6975 7.48085L42.6556 7.61996C44.7466 7.61996 44.7466 7.61391 44.7466 7.48085C44.7466 7.40827 44.6869 7.23891 44.6152 7.1119C44.5375 6.98488 44.4001 6.82762 44.2985 6.76714ZM74.2291 6.74295C74.0977 6.69456 73.9244 6.65827 73.8408 6.65827C73.7631 6.65827 73.6137 6.68246 73.5122 6.7127C73.4166 6.74295 73.2553 6.83972 73.1597 6.93649C73.0641 7.02722 72.9327 7.22682 72.867 7.37803C72.7774 7.57762 72.7475 7.78327 72.7475 8.18851C72.7415 8.66028 72.7654 8.78125 72.9028 9.08367C73.0104 9.31351 73.1358 9.47077 73.2613 9.5494C73.3688 9.61593 73.5779 9.68246 73.7213 9.70666C73.9125 9.7369 74.0678 9.71875 74.247 9.65222C74.4143 9.58569 74.5577 9.47077 74.6831 9.29536C74.7787 9.1502 74.8922 8.89012 74.9281 8.70867C74.9639 8.52117 74.9759 8.18851 74.9579 7.96472C74.934 7.74093 74.8683 7.43851 74.8026 7.2994C74.7369 7.16028 74.6353 6.99698 74.5756 6.93649C74.5159 6.87601 74.3605 6.79133 74.2291 6.74295ZM67.2393 6.86996C67.1198 6.77924 66.9466 6.7369 66.6718 6.71875C66.3372 6.70061 66.2596 6.71875 66.0983 6.83972C65.9967 6.91835 65.8414 7.08166 65.7577 7.19657C65.6681 7.31149 65.5666 7.55343 65.5307 7.74093C65.4949 7.92238 65.4769 8.23085 65.5008 8.43649C65.5188 8.63609 65.5725 8.89012 65.6203 9.01109C65.6681 9.12601 65.7816 9.29537 65.8772 9.39214C65.9728 9.48891 66.1102 9.59174 66.1819 9.62198C66.2536 9.65222 66.4687 9.67641 66.6598 9.67641C66.9167 9.67641 67.0541 9.64012 67.2094 9.53125C67.3289 9.45262 67.4843 9.25908 67.5679 9.09577C67.6993 8.83569 67.7173 8.71472 67.7173 8.19456C67.7173 7.66835 67.6993 7.54738 67.5679 7.2873C67.4902 7.12399 67.3409 6.93649 67.2393 6.86996ZM11.9186 6.95464H2.50928V7.25706C4.4927 7.25706 4.66595 7.26916 4.68985 7.34778C4.71972 7.42037 4.98258 7.43851 6.57171 7.43851C8.38785 7.43851 8.4237 7.43851 8.4237 7.55948C8.4237 7.6744 8.46552 7.6744 9.278 7.6744C9.74399 7.6744 10.2996 7.6502 10.5027 7.61391C10.7058 7.58367 11.0464 7.4748 11.2495 7.37803C11.4526 7.28125 11.6916 7.14819 11.7692 7.07561L11.9186 6.95464ZM21.764 7.80141H20.7902V9.49496C22.7199 9.46472 22.8334 9.45262 22.9827 9.3377C23.0783 9.26512 23.1978 9.11996 23.2575 9.00504C23.3113 8.89012 23.3591 8.71472 23.3591 8.61795C23.3591 8.51512 23.3113 8.33972 23.2575 8.2248C23.1978 8.09778 23.0604 7.96472 22.9409 7.90424C22.7677 7.81956 22.5705 7.80141 21.764 7.80141ZM6.58963 7.87399L2.51525 7.8498L2.50928 8.16432C4.4927 8.16432 4.66595 8.17641 4.68985 8.25504C4.71972 8.32762 4.98258 8.34577 6.57171 8.34577C8.38785 8.34577 8.4237 8.34577 8.4237 8.46674C8.4237 8.58166 8.46552 8.5877 10.1263 8.5877C11.4586 8.5877 11.829 8.56956 11.811 8.50907C11.7991 8.46674 11.6856 8.35787 11.5601 8.26714C11.4287 8.17641 11.1778 8.05545 10.9926 7.99496C10.7058 7.91028 10.1861 7.89214 6.58963 7.87399ZM37.5597 8.65424L37.5358 8.30343L37.2132 8.38206C37.0399 8.41835 36.7293 8.48488 36.5321 8.52722C36.2573 8.58166 36.1319 8.64214 35.9825 8.7994C35.8391 8.95061 35.7854 9.05948 35.7854 9.21674C35.7854 9.3498 35.8391 9.48287 35.9347 9.59174C36.0602 9.74295 36.1139 9.76109 36.4903 9.76109C36.8308 9.76109 36.9384 9.73085 37.1355 9.60383C37.2669 9.51916 37.4163 9.3498 37.476 9.22278C37.5477 9.06553 37.5716 8.90222 37.5597 8.65424ZM79.2832 8.68448C79.1996 8.61795 79.0323 8.55141 78.9188 8.52117C78.7993 8.49698 78.6081 8.49698 78.5006 8.52117C78.3871 8.54537 78.2318 8.61795 78.1541 8.67843C78.0764 8.73891 77.9629 8.85383 77.8972 8.93851C77.8375 9.01714 77.7718 9.19859 77.7479 9.33166C77.7299 9.48287 77.7479 9.66432 77.8136 9.82762C77.8733 9.99093 77.9928 10.1482 78.1302 10.251C78.2736 10.3538 78.4528 10.4204 78.6261 10.4385C78.8053 10.4567 78.9666 10.4264 79.116 10.3478C79.2354 10.2873 79.3251 10.2147 79.3071 10.1905C79.2952 10.1663 79.2056 10.1482 79.116 10.1482C78.9905 10.1482 78.9308 10.1058 78.8471 9.93649C78.7814 9.79738 78.7037 9.7248 78.6261 9.7248C78.5245 9.7248 78.5066 9.76109 78.5066 9.93649C78.5066 10.13 78.4887 10.1482 78.3274 10.1482H78.1481V8.75706C78.9785 8.75101 79.104 8.7752 79.2235 8.86593C79.331 8.95666 79.3728 9.04738 79.3728 9.19859C79.3728 9.31956 79.325 9.45262 79.2593 9.51916C79.1936 9.59174 79.1697 9.67641 79.1876 9.75504C79.2056 9.82158 79.2773 9.94254 79.337 10.0272L79.4505 10.1784C79.6417 9.75504 79.6954 9.56149 79.7014 9.48287C79.7014 9.39819 79.6417 9.21069 79.564 9.05948C79.4923 8.91432 79.3609 8.74496 79.2832 8.68448ZM6.51794 8.75706H2.51525V9.05948C4.4927 9.05948 4.66595 9.07158 4.69582 9.1502C4.71972 9.22278 4.87505 9.24093 5.62182 9.24093H6.51794V8.75706ZM12.1337 8.75706H9.23618L9.41541 8.89617C9.51099 8.9748 9.63048 9.12601 9.68425 9.23488L9.77386 9.42843C11.7394 9.42238 12.3487 9.43448 12.4025 9.45262C12.4503 9.46472 12.4921 9.44657 12.4921 9.40424C12.4921 9.3619 12.4085 9.19859 12.3129 9.04133L12.1337 8.75706ZM78.9606 9.16835C78.9367 9.08972 78.8591 9.05948 78.7157 9.05948C78.5185 9.05948 78.5066 9.07158 78.5066 9.24093C78.5066 9.38609 78.5305 9.42238 78.638 9.42238C78.7157 9.42238 78.8232 9.39214 78.8889 9.3498C78.9606 9.30141 78.9845 9.23488 78.9606 9.16835ZM6.51794 9.66432H2.51525V9.96674C4.26568 9.96674 4.66595 9.99093 4.66595 10.0272C4.66595 10.0635 5.01245 10.0877 5.59194 10.0877H6.51794V9.66432ZM12.6116 9.66432H9.80373V10.3296H12.7311C12.7311 10.1179 12.7012 9.96674 12.6713 9.86391L12.6116 9.66432ZM12.7609 10.5716H2.51525V10.874C4.26568 10.874 4.66595 10.8982 4.66595 10.9345C4.66595 10.9708 5.32311 10.995 6.51794 10.995C8.31616 10.995 8.36993 11.001 8.3998 11.1159C8.42967 11.2369 8.47746 11.2369 10.5206 11.2369C11.6677 11.2369 12.6235 11.2188 12.6355 11.1946C12.6534 11.1643 12.6833 11.0192 12.7131 10.8558L12.7609 10.5716ZM7.50368 11.4183H2.51525V11.7813C4.26568 11.7813 4.66595 11.8054 4.66595 11.8417C4.66595 11.878 5.32311 11.9022 6.51794 11.9022C8.31616 11.9022 8.36993 11.9083 8.3998 12.0232C8.42967 12.1442 8.47746 12.1442 10.2518 12.1442H12.0739C12.283 11.8962 12.3726 11.7631 12.4144 11.6966C12.4503 11.624 12.4861 11.5333 12.4861 11.497C12.4921 11.4365 11.4526 11.4183 7.50368 11.4183ZM7.14523 12.3377L2.51525 12.3256V12.6885C4.26568 12.6885 4.66595 12.7127 4.66595 12.749C4.66595 12.7853 5.32311 12.8095 6.51794 12.8095C8.35798 12.8095 8.36993 12.8095 8.41175 12.9425C8.45954 13.0696 8.47149 13.0696 9.50502 13.0333C10.1682 13.0151 10.676 12.9667 10.9089 12.9002C11.1061 12.8518 11.3809 12.7308 11.5303 12.6401C11.6736 12.5494 11.7872 12.4526 11.7812 12.4163C11.7752 12.38 10.1741 12.3498 7.14523 12.3377Z" fill="#808080"/>
</svg>
