<svg width="56" height="56" viewBox="0 0 56 56" fill="none" xmlns="http://www.w3.org/2000/svg">
<g clip-path="url(#clip0_4502_211)">
<path fill-rule="evenodd" clip-rule="evenodd" d="M28 0C35.4261 0 42.548 2.94999 47.799 8.20101C53.05 13.452 56 20.5739 56 28C56 33.5379 54.3578 38.9514 51.2812 43.556C48.2045 48.1605 43.8315 51.7494 38.7151 53.8686C33.5988 55.9879 27.969 56.5424 22.5375 55.462C17.106 54.3816 12.1169 51.7149 8.20102 47.799C4.28515 43.8831 1.61841 38.894 0.538025 33.4625C-0.542361 28.0311 0.012132 22.4012 2.13139 17.2849C4.25064 12.1685 7.83947 7.79553 12.444 4.71885C17.0486 1.64217 22.4621 0 28 0Z" fill="#1E1E1E"/>
<path fill-rule="evenodd" clip-rule="evenodd" d="M28 0C35.4261 0 42.548 2.94999 47.799 8.20101C53.05 13.452 56 20.5739 56 28C56 33.5379 54.3578 38.9514 51.2812 43.556C48.2045 48.1605 43.8315 51.7494 38.7151 53.8686C33.5988 55.9879 27.969 56.5424 22.5375 55.462C17.106 54.3816 12.1169 51.7149 8.20102 47.799C4.28515 43.8831 1.61841 38.894 0.538025 33.4625C-0.542361 28.0311 0.012132 22.4012 2.13139 17.2849C4.25064 12.1685 7.83947 7.79553 12.444 4.71885C17.0486 1.64217 22.4621 0 28 0Z" fill="black" fill-opacity="0.2"/>
<path fill-rule="evenodd" clip-rule="evenodd" d="M28 0C35.4261 0 42.548 2.94999 47.799 8.20101C53.05 13.452 56 20.5739 56 28C56 33.5379 54.3578 38.9514 51.2812 43.556C48.2045 48.1605 43.8315 51.7494 38.7151 53.8686C33.5988 55.9879 27.969 56.5424 22.5375 55.462C17.106 54.3816 12.1169 51.7149 8.20102 47.799C4.28515 43.8831 1.61841 38.894 0.538025 33.4625C-0.542361 28.0311 0.012132 22.4012 2.13139 17.2849C4.25064 12.1685 7.83947 7.79553 12.444 4.71885C17.0486 1.64217 22.4621 0 28 0Z" fill="black" fill-opacity="0.2"/>
<path fill-rule="evenodd" clip-rule="evenodd" d="M28 0C35.4261 0 42.548 2.94999 47.799 8.20101C53.05 13.452 56 20.5739 56 28C56 33.5379 54.3578 38.9514 51.2812 43.556C48.2045 48.1605 43.8315 51.7494 38.7151 53.8686C33.5988 55.9879 27.969 56.5424 22.5375 55.462C17.106 54.3816 12.1169 51.7149 8.20102 47.799C4.28515 43.8831 1.61841 38.894 0.538025 33.4625C-0.542361 28.0311 0.012132 22.4012 2.13139 17.2849C4.25064 12.1685 7.83947 7.79553 12.444 4.71885C17.0486 1.64217 22.4621 0 28 0Z" fill="black" fill-opacity="0.2"/>
<path fill-rule="evenodd" clip-rule="evenodd" d="M28 0C35.4261 0 42.548 2.94999 47.799 8.20101C53.05 13.452 56 20.5739 56 28C56 33.5379 54.3578 38.9514 51.2812 43.556C48.2045 48.1605 43.8315 51.7494 38.7151 53.8686C33.5988 55.9879 27.969 56.5424 22.5375 55.462C17.106 54.3816 12.1169 51.7149 8.20102 47.799C4.28515 43.8831 1.61841 38.894 0.538025 33.4625C-0.542361 28.0311 0.012132 22.4012 2.13139 17.2849C4.25064 12.1685 7.83947 7.79553 12.444 4.71885C17.0486 1.64217 22.4621 0 28 0Z" fill="black" fill-opacity="0.2"/>
<path fill-rule="evenodd" clip-rule="evenodd" d="M28.0012 0.421875C35.3146 0.421878 42.3285 3.32713 47.4999 8.49851C52.6713 13.6699 55.5765 20.6838 55.5765 27.9972C55.5765 33.4511 53.9592 38.7825 50.9292 43.3173C47.8992 47.852 43.5925 51.3864 38.5538 53.4735C33.515 55.5607 27.9706 56.1067 22.6215 55.0427C17.2724 53.9787 12.3589 51.3524 8.50243 47.4959C4.64594 43.6395 2.01964 38.726 0.955645 33.3769C-0.108355 28.0278 0.437731 22.4833 2.52485 17.4446C4.61196 12.4059 8.14637 8.09917 12.6811 5.06916C17.2159 2.03914 22.5473 0.421873 28.0012 0.421875Z" fill="white"/>
<path fill-rule="evenodd" clip-rule="evenodd" d="M27.9998 0.945312C31.5532 0.945313 35.0717 1.6452 38.3546 3.00501C41.6375 4.36482 44.6204 6.35793 47.133 8.87053C49.6456 11.3831 51.6387 14.366 52.9985 17.6489C54.3583 20.9318 55.0582 24.4503 55.0582 28.0037C55.0582 33.3553 53.4712 38.5868 50.498 43.0365C47.5248 47.4863 43.2989 50.9544 38.3546 53.0024C33.4103 55.0504 27.9698 55.5862 22.721 54.5422C17.4722 53.4981 12.6508 50.9211 8.86664 47.1369C5.08245 43.3527 2.50539 38.5313 1.46134 33.2825C0.417284 28.0337 0.95313 22.5932 3.00112 17.6489C5.0491 12.7046 8.51724 8.47869 12.967 5.50547C17.4167 2.53226 22.6482 0.945313 27.9998 0.945312Z" fill="#1E1E1E"/>
<path fill-rule="evenodd" clip-rule="evenodd" d="M27.9998 0.945312C31.5532 0.945313 35.0717 1.6452 38.3546 3.00501C41.6375 4.36482 44.6204 6.35793 47.133 8.87053C49.6456 11.3831 51.6387 14.366 52.9985 17.6489C54.3583 20.9318 55.0582 24.4503 55.0582 28.0037C55.0582 33.3553 53.4712 38.5868 50.498 43.0365C47.5248 47.4863 43.2989 50.9544 38.3546 53.0024C33.4103 55.0504 27.9698 55.5862 22.721 54.5422C17.4722 53.4981 12.6508 50.9211 8.86664 47.1369C5.08245 43.3527 2.50539 38.5313 1.46134 33.2825C0.417284 28.0337 0.95313 22.5932 3.00112 17.6489C5.0491 12.7046 8.51724 8.47869 12.967 5.50547C17.4167 2.53226 22.6482 0.945313 27.9998 0.945312Z" fill="black" fill-opacity="0.2"/>
<path fill-rule="evenodd" clip-rule="evenodd" d="M27.9998 0.945312C31.5532 0.945313 35.0717 1.6452 38.3546 3.00501C41.6375 4.36482 44.6204 6.35793 47.133 8.87053C49.6456 11.3831 51.6387 14.366 52.9985 17.6489C54.3583 20.9318 55.0582 24.4503 55.0582 28.0037C55.0582 33.3553 53.4712 38.5868 50.498 43.0365C47.5248 47.4863 43.2989 50.9544 38.3546 53.0024C33.4103 55.0504 27.9698 55.5862 22.721 54.5422C17.4722 53.4981 12.6508 50.9211 8.86664 47.1369C5.08245 43.3527 2.50539 38.5313 1.46134 33.2825C0.417284 28.0337 0.95313 22.5932 3.00112 17.6489C5.0491 12.7046 8.51724 8.47869 12.967 5.50547C17.4167 2.53226 22.6482 0.945313 27.9998 0.945312Z" fill="black" fill-opacity="0.2"/>
<path fill-rule="evenodd" clip-rule="evenodd" d="M27.9998 0.945312C31.5532 0.945313 35.0717 1.6452 38.3546 3.00501C41.6375 4.36482 44.6204 6.35793 47.133 8.87053C49.6456 11.3831 51.6387 14.366 52.9985 17.6489C54.3583 20.9318 55.0582 24.4503 55.0582 28.0037C55.0582 33.3553 53.4712 38.5868 50.498 43.0365C47.5248 47.4863 43.2989 50.9544 38.3546 53.0024C33.4103 55.0504 27.9698 55.5862 22.721 54.5422C17.4722 53.4981 12.6508 50.9211 8.86664 47.1369C5.08245 43.3527 2.50539 38.5313 1.46134 33.2825C0.417284 28.0337 0.95313 22.5932 3.00112 17.6489C5.0491 12.7046 8.51724 8.47869 12.967 5.50547C17.4167 2.53226 22.6482 0.945313 27.9998 0.945312Z" fill="black" fill-opacity="0.2"/>
<path fill-rule="evenodd" clip-rule="evenodd" d="M27.9998 0.945312C31.5532 0.945313 35.0717 1.6452 38.3546 3.00501C41.6375 4.36482 44.6204 6.35793 47.133 8.87053C49.6456 11.3831 51.6387 14.366 52.9985 17.6489C54.3583 20.9318 55.0582 24.4503 55.0582 28.0037C55.0582 33.3553 53.4712 38.5868 50.498 43.0365C47.5248 47.4863 43.2989 50.9544 38.3546 53.0024C33.4103 55.0504 27.9698 55.5862 22.721 54.5422C17.4722 53.4981 12.6508 50.9211 8.86664 47.1369C5.08245 43.3527 2.50539 38.5313 1.46134 33.2825C0.417284 28.0337 0.95313 22.5932 3.00112 17.6489C5.0491 12.7046 8.51724 8.47869 12.967 5.50547C17.4167 2.53226 22.6482 0.945313 27.9998 0.945312Z" fill="black" fill-opacity="0.2"/>
<path fill-rule="evenodd" clip-rule="evenodd" d="M28 2.15625C34.8532 2.15625 41.4256 4.87865 46.2716 9.72457C51.1175 14.5705 53.8399 21.1429 53.8399 27.9961C53.8399 33.1067 52.3244 38.1026 49.4851 42.352C46.6458 46.6013 42.6101 49.9133 37.8885 51.869C33.1669 53.8248 27.9714 54.3365 22.9589 53.3395C17.9465 52.3424 13.3423 49.8814 9.72849 46.2676C6.11472 42.6539 3.65371 38.0496 2.65667 33.0372C1.65964 28.0248 2.17135 22.8292 4.12711 18.1076C6.08287 13.386 9.39482 9.35037 13.6442 6.51105C17.8935 3.67173 22.8894 2.15625 28 2.15625Z" fill="white"/>
<path fill-rule="evenodd" clip-rule="evenodd" d="M27.9992 5.85156C38.0044 5.85156 46.4586 12.4867 49.2053 21.5963H6.793C9.5397 12.4867 17.9939 5.85156 27.9992 5.85156ZM49.2054 34.4014C46.4587 43.5111 38.0044 50.1462 27.9992 50.1462C17.9939 50.1462 9.53966 43.5111 6.79297 34.4014H49.2054Z" fill="#224D7F"/>
<path fill-rule="evenodd" clip-rule="evenodd" d="M27.9988 7.63281L28.5168 21.598H27.4808L27.9988 7.63281ZM28.6021 21.598L31.5356 7.94226L29.6466 21.598H28.6021ZM29.7869 21.598L34.965 8.86112L30.857 21.598H29.7869ZM31.1275 21.598L38.1827 10.3616L32.2393 21.598H31.1275ZM32.771 21.598L41.091 12.398L33.9351 21.598H32.771ZM35.0008 21.598L43.6014 14.9084L36.2042 21.598H35.0008ZM38.4889 21.598L45.6378 17.8167L39.6155 21.598H38.4889ZM45.3908 21.598L47.1383 21.0344L45.7519 21.598H45.3908ZM45.7518 34.4031L47.1383 34.9667L45.3906 34.4031H45.7518ZM39.6154 34.4031L45.6378 38.1844L38.4888 34.4031H39.6154ZM36.2041 34.4031L43.6014 41.0927L35.0007 34.4031H36.2041ZM33.9351 34.4031L41.091 43.6032L32.771 34.4031H33.9351ZM32.2393 34.4031L38.1827 45.6396L31.1275 34.4031H32.2393ZM30.857 34.4031L34.965 47.14L29.7868 34.4031H30.857ZM29.6466 34.4031L31.5356 48.0589L28.6021 34.4031H29.6466ZM28.5168 34.4031L27.9988 48.3683L27.4808 34.4031H28.5168ZM27.3955 34.4031L24.462 48.0589L26.351 34.4031H27.3955ZM26.2108 34.4031L21.0327 47.14L25.1406 34.4031H26.2108ZM24.8702 34.4031L17.8149 45.6396L23.7583 34.4031H24.8702ZM23.2267 34.4031L14.9067 43.6032L22.0625 34.4031H23.2267ZM20.9969 34.4031L12.3962 41.0927L19.7935 34.4031H20.9969ZM17.5088 34.4031L10.3598 38.1844L16.3822 34.4031H17.5088ZM10.607 34.4031L8.85938 34.9667L10.2458 34.4031H10.607ZM10.2457 21.598L8.85938 21.0344L10.6069 21.598H10.2457ZM16.3822 21.598L10.3598 17.8167L17.5087 21.598H16.3822ZM19.7935 21.598L12.3962 14.9084L20.9968 21.598H19.7935ZM22.0625 21.598L14.9067 12.398L23.2266 21.598H22.0625ZM23.7583 21.598L17.8149 10.3616L24.8701 21.598H23.7583ZM25.1406 21.598L21.0327 8.86112L26.2108 21.598H25.1406ZM26.351 21.598L24.462 7.94226L27.3955 21.598H26.351Z" fill="#9294BB"/>
<path fill-rule="evenodd" clip-rule="evenodd" d="M43.4715 26.1877L42.491 28.7251H44.4489L43.4715 26.1877ZM20.6177 27.8536L20.6177 27.8468V27.812L20.6177 27.8052C20.6237 26.2303 20.8634 24.7482 22.8843 24.6829C24.2365 24.6393 24.7479 25.8037 24.8872 26.0741L27.9921 25.6253C27.4991 24.4949 26.4883 23.6948 25.4366 23.3005C24.7797 23.052 24.0462 22.9219 23.0333 22.9219C21.8013 22.9219 20.8432 23.1039 20.065 23.4034C19.2842 23.7052 18.5628 24.1709 17.9956 24.9297C17.0478 26.2038 16.9116 28.3628 17.4916 29.8228C17.6182 30.1418 17.7841 30.4458 17.9956 30.729C18.5623 31.4882 19.2381 32.0182 20.0189 32.3199C20.7971 32.6195 21.8048 32.7703 23.0367 32.7703C24.0497 32.7703 24.896 32.6722 25.5427 32.3998C26.4895 32.0011 27.8304 30.9436 28.1306 29.9688L25.4688 29.4277C25.3526 29.8782 24.4004 31.0703 22.8912 31.0081C20.8525 30.9241 20.6239 29.5104 20.6177 27.8536ZM14.5799 26.7681H9.9852V24.8408H16.6293L16.6292 23.0719H6.71484V32.6017H16.6292L16.6293 30.8329H9.9852V28.4667H14.5799V26.7681ZM41.8239 30.4514L40.993 32.6017H37.5175L41.922 23.0719H45.123L49.5024 32.6017H45.9423L45.114 30.4514H41.8239ZM37.8707 26.8609H32.6617V24.8408H39.2582L39.2582 23.0719H29.4148V32.6017H32.6617V28.5041H37.8707V26.8609Z" fill="#1E1E1E"/>
<path fill-rule="evenodd" clip-rule="evenodd" d="M43.4715 26.1877L42.491 28.7251H44.4489L43.4715 26.1877ZM20.6177 27.8536L20.6177 27.8468V27.812L20.6177 27.8052C20.6237 26.2303 20.8634 24.7482 22.8843 24.6829C24.2365 24.6393 24.7479 25.8037 24.8872 26.0741L27.9921 25.6253C27.4991 24.4949 26.4883 23.6948 25.4366 23.3005C24.7797 23.052 24.0462 22.9219 23.0333 22.9219C21.8013 22.9219 20.8432 23.1039 20.065 23.4034C19.2842 23.7052 18.5628 24.1709 17.9956 24.9297C17.0478 26.2038 16.9116 28.3628 17.4916 29.8228C17.6182 30.1418 17.7841 30.4458 17.9956 30.729C18.5623 31.4882 19.2381 32.0182 20.0189 32.3199C20.7971 32.6195 21.8048 32.7703 23.0367 32.7703C24.0497 32.7703 24.896 32.6722 25.5427 32.3998C26.4895 32.0011 27.8304 30.9436 28.1306 29.9688L25.4688 29.4277C25.3526 29.8782 24.4004 31.0703 22.8912 31.0081C20.8525 30.9241 20.6239 29.5104 20.6177 27.8536ZM14.5799 26.7681H9.9852V24.8408H16.6293L16.6292 23.0719H6.71484V32.6017H16.6292L16.6293 30.8329H9.9852V28.4667H14.5799V26.7681ZM41.8239 30.4514L40.993 32.6017H37.5175L41.922 23.0719H45.123L49.5024 32.6017H45.9423L45.114 30.4514H41.8239ZM37.8707 26.8609H32.6617V24.8408H39.2582L39.2582 23.0719H29.4148V32.6017H32.6617V28.5041H37.8707V26.8609Z" fill="black" fill-opacity="0.2"/>
<path fill-rule="evenodd" clip-rule="evenodd" d="M43.4715 26.1877L42.491 28.7251H44.4489L43.4715 26.1877ZM20.6177 27.8536L20.6177 27.8468V27.812L20.6177 27.8052C20.6237 26.2303 20.8634 24.7482 22.8843 24.6829C24.2365 24.6393 24.7479 25.8037 24.8872 26.0741L27.9921 25.6253C27.4991 24.4949 26.4883 23.6948 25.4366 23.3005C24.7797 23.052 24.0462 22.9219 23.0333 22.9219C21.8013 22.9219 20.8432 23.1039 20.065 23.4034C19.2842 23.7052 18.5628 24.1709 17.9956 24.9297C17.0478 26.2038 16.9116 28.3628 17.4916 29.8228C17.6182 30.1418 17.7841 30.4458 17.9956 30.729C18.5623 31.4882 19.2381 32.0182 20.0189 32.3199C20.7971 32.6195 21.8048 32.7703 23.0367 32.7703C24.0497 32.7703 24.896 32.6722 25.5427 32.3998C26.4895 32.0011 27.8304 30.9436 28.1306 29.9688L25.4688 29.4277C25.3526 29.8782 24.4004 31.0703 22.8912 31.0081C20.8525 30.9241 20.6239 29.5104 20.6177 27.8536ZM14.5799 26.7681H9.9852V24.8408H16.6293L16.6292 23.0719H6.71484V32.6017H16.6292L16.6293 30.8329H9.9852V28.4667H14.5799V26.7681ZM41.8239 30.4514L40.993 32.6017H37.5175L41.922 23.0719H45.123L49.5024 32.6017H45.9423L45.114 30.4514H41.8239ZM37.8707 26.8609H32.6617V24.8408H39.2582L39.2582 23.0719H29.4148V32.6017H32.6617V28.5041H37.8707V26.8609Z" fill="black" fill-opacity="0.2"/>
<path fill-rule="evenodd" clip-rule="evenodd" d="M43.4715 26.1877L42.491 28.7251H44.4489L43.4715 26.1877ZM20.6177 27.8536L20.6177 27.8468V27.812L20.6177 27.8052C20.6237 26.2303 20.8634 24.7482 22.8843 24.6829C24.2365 24.6393 24.7479 25.8037 24.8872 26.0741L27.9921 25.6253C27.4991 24.4949 26.4883 23.6948 25.4366 23.3005C24.7797 23.052 24.0462 22.9219 23.0333 22.9219C21.8013 22.9219 20.8432 23.1039 20.065 23.4034C19.2842 23.7052 18.5628 24.1709 17.9956 24.9297C17.0478 26.2038 16.9116 28.3628 17.4916 29.8228C17.6182 30.1418 17.7841 30.4458 17.9956 30.729C18.5623 31.4882 19.2381 32.0182 20.0189 32.3199C20.7971 32.6195 21.8048 32.7703 23.0367 32.7703C24.0497 32.7703 24.896 32.6722 25.5427 32.3998C26.4895 32.0011 27.8304 30.9436 28.1306 29.9688L25.4688 29.4277C25.3526 29.8782 24.4004 31.0703 22.8912 31.0081C20.8525 30.9241 20.6239 29.5104 20.6177 27.8536ZM14.5799 26.7681H9.9852V24.8408H16.6293L16.6292 23.0719H6.71484V32.6017H16.6292L16.6293 30.8329H9.9852V28.4667H14.5799V26.7681ZM41.8239 30.4514L40.993 32.6017H37.5175L41.922 23.0719H45.123L49.5024 32.6017H45.9423L45.114 30.4514H41.8239ZM37.8707 26.8609H32.6617V24.8408H39.2582L39.2582 23.0719H29.4148V32.6017H32.6617V28.5041H37.8707V26.8609Z" fill="black" fill-opacity="0.2"/>
<path fill-rule="evenodd" clip-rule="evenodd" d="M43.4715 26.1877L42.491 28.7251H44.4489L43.4715 26.1877ZM20.6177 27.8536L20.6177 27.8468V27.812L20.6177 27.8052C20.6237 26.2303 20.8634 24.7482 22.8843 24.6829C24.2365 24.6393 24.7479 25.8037 24.8872 26.0741L27.9921 25.6253C27.4991 24.4949 26.4883 23.6948 25.4366 23.3005C24.7797 23.052 24.0462 22.9219 23.0333 22.9219C21.8013 22.9219 20.8432 23.1039 20.065 23.4034C19.2842 23.7052 18.5628 24.1709 17.9956 24.9297C17.0478 26.2038 16.9116 28.3628 17.4916 29.8228C17.6182 30.1418 17.7841 30.4458 17.9956 30.729C18.5623 31.4882 19.2381 32.0182 20.0189 32.3199C20.7971 32.6195 21.8048 32.7703 23.0367 32.7703C24.0497 32.7703 24.896 32.6722 25.5427 32.3998C26.4895 32.0011 27.8304 30.9436 28.1306 29.9688L25.4688 29.4277C25.3526 29.8782 24.4004 31.0703 22.8912 31.0081C20.8525 30.9241 20.6239 29.5104 20.6177 27.8536ZM14.5799 26.7681H9.9852V24.8408H16.6293L16.6292 23.0719H6.71484V32.6017H16.6292L16.6293 30.8329H9.9852V28.4667H14.5799V26.7681ZM41.8239 30.4514L40.993 32.6017H37.5175L41.922 23.0719H45.123L49.5024 32.6017H45.9423L45.114 30.4514H41.8239ZM37.8707 26.8609H32.6617V24.8408H39.2582L39.2582 23.0719H29.4148V32.6017H32.6617V28.5041H37.8707V26.8609Z" fill="black" fill-opacity="0.2"/>
</g>
<defs>
<clipPath id="clip0_4502_211">
<rect width="56" height="56" fill="white"/>
</clipPath>
</defs>
</svg>
