<svg width="48" height="48" viewBox="0 0 48 48" fill="none" xmlns="http://www.w3.org/2000/svg">
<rect width="48" height="48" rx="24" fill="#1E1E1E"/>
<rect width="48" height="48" rx="24" fill="black" fill-opacity="0.2"/>
<rect width="48" height="48" rx="24" fill="black" fill-opacity="0.2"/>
<rect width="48" height="48" rx="24" fill="black" fill-opacity="0.2"/>
<rect width="48" height="48" rx="24" fill="black" fill-opacity="0.2"/>
<path d="M29.2223 28.2041H25.4606C25.3854 28.3674 25.2851 28.5306 25.1472 28.6688C24.865 28.9514 24.4951 29.1021 24.0939 29.1021C23.6926 29.1021 23.3227 28.9514 23.0406 28.6688L20.3949 26.0189C20.2758 25.8996 20.2758 25.7238 20.3949 25.6045C20.514 25.4852 20.6896 25.4852 20.8087 25.6045L23.4732 28.2732C23.818 28.6186 24.3823 28.6186 24.7396 28.2732C25.0845 27.9278 25.0845 27.3627 24.7396 27.0048L21.4231 23.683C20.8714 23.1305 20.1567 22.8667 19.4482 22.8479H16V26.4208H17.6677C18.0564 26.4208 18.4263 26.5715 18.721 26.8541L21.0281 29.1649C21.5924 29.73 22.3823 30 23.1096 30H29.2223C29.7113 30 30.1126 29.5981 30.1126 29.1083C30.1126 28.6186 29.7113 28.2041 29.2223 28.2041ZM31.0655 22.7851C32.1878 21.7993 32.3257 20.0787 31.3351 18.9359C30.3508 17.8119 28.633 17.6738 27.4919 18.6659L27.1032 19.005L26.7145 18.6659C25.5923 17.6801 23.8557 17.8119 22.8713 18.9359C21.8808 20.0599 22.0187 21.7993 23.1409 22.7851L27.0405 26.7913L31.0655 22.7851Z" fill="white"/>
</svg>
